<svg xmlns="http://www.w3.org/2000/svg" xmlns:xlink="http://www.w3.org/1999/xlink" preserveAspectRatio="xMidYMid" width="30" height="30" viewBox="0 0 30 30">
  <defs>
    <style>
      .cls-1 {
        fill: #242424;
        fill-rule: evenodd;
      }
    </style>
  </defs>
  <path d="M29.521,30.000 L0.479,30.000 C0.214,30.000 -0.000,29.785 -0.000,29.521 L-0.000,8.669 C-0.000,8.405 0.214,8.190 0.479,8.190 L7.636,8.190 L7.636,0.957 L7.476,0.957 C7.212,0.957 6.997,0.743 6.997,0.479 C6.997,0.214 7.212,-0.000 7.476,-0.000 L22.524,-0.000 C22.788,-0.000 23.003,0.214 23.003,0.479 C23.003,0.743 22.788,0.957 22.524,0.957 L22.364,0.957 L22.364,8.190 L29.521,8.190 C29.786,8.190 30.000,8.405 30.000,8.669 L30.000,29.521 C30.000,29.785 29.786,30.000 29.521,30.000 ZM15.479,29.042 L18.606,29.042 L18.606,19.967 L15.479,19.967 L15.479,29.042 ZM11.394,29.042 L14.521,29.042 L14.521,19.967 L11.394,19.967 L11.394,29.042 ZM7.636,9.148 L0.957,9.148 L0.957,29.042 L7.636,29.042 L7.636,9.148 ZM29.043,9.148 L22.364,9.148 L22.364,10.584 C22.364,10.848 22.150,11.063 21.885,11.063 C21.621,11.063 21.407,10.848 21.407,10.584 L21.407,0.957 L8.593,0.957 L8.593,29.042 L10.436,29.042 L10.436,19.489 C10.436,19.224 10.650,19.010 10.915,19.010 L19.085,19.010 C19.349,19.010 19.564,19.224 19.564,19.489 L19.564,29.042 L21.407,29.042 L21.407,12.499 C21.407,12.234 21.621,12.020 21.885,12.020 C22.150,12.020 22.364,12.234 22.364,12.499 L22.364,29.042 L29.043,29.042 L29.043,9.148 ZM25.703,11.778 C25.968,11.778 26.182,11.992 26.182,12.257 L26.182,14.424 C26.182,14.688 25.968,14.903 25.703,14.903 C25.439,14.903 25.225,14.688 25.225,14.424 L25.225,12.257 C25.225,11.992 25.439,11.778 25.703,11.778 ZM25.703,17.533 C25.968,17.533 26.182,17.747 26.182,18.012 L26.182,20.179 C26.182,20.443 25.968,20.657 25.703,20.657 C25.439,20.657 25.225,20.443 25.225,20.179 L25.225,18.012 C25.225,17.747 25.439,17.533 25.703,17.533 ZM25.703,23.288 C25.968,23.288 26.182,23.502 26.182,23.766 L26.182,25.933 C26.182,26.198 25.968,26.412 25.703,26.412 C25.439,26.412 25.225,26.198 25.225,25.933 L25.225,23.766 C25.225,23.502 25.439,23.288 25.703,23.288 ZM19.085,9.207 L16.843,9.207 L16.843,11.449 C16.843,11.713 16.628,11.928 16.364,11.928 L13.636,11.928 C13.371,11.928 13.157,11.713 13.157,11.449 L13.157,9.207 L10.915,9.207 C10.650,9.207 10.436,8.993 10.436,8.728 L10.436,6.000 C10.436,5.736 10.650,5.521 10.915,5.521 L13.157,5.521 L13.157,3.279 C13.157,3.015 13.371,2.800 13.636,2.800 L16.364,2.800 C16.629,2.800 16.843,3.015 16.843,3.279 L16.843,5.521 L19.085,5.521 C19.349,5.521 19.564,5.736 19.564,6.000 L19.564,8.728 C19.564,8.993 19.349,9.207 19.085,9.207 ZM18.606,6.479 L16.364,6.479 C16.100,6.479 15.885,6.264 15.885,6.000 L15.885,3.758 L14.114,3.758 L14.114,6.000 C14.114,6.264 13.900,6.479 13.636,6.479 L11.394,6.479 L11.394,8.249 L13.636,8.249 C13.900,8.249 14.114,8.464 14.114,8.728 L14.114,10.970 L15.885,10.970 L15.885,8.728 C15.885,8.464 16.100,8.249 16.364,8.249 L18.606,8.249 L18.606,6.479 ZM4.296,11.778 C4.561,11.778 4.775,11.992 4.775,12.257 L4.775,14.424 C4.775,14.688 4.561,14.903 4.296,14.903 C4.032,14.903 3.818,14.688 3.818,14.424 L3.818,12.257 C3.818,11.992 4.032,11.778 4.296,11.778 ZM4.296,17.533 C4.561,17.533 4.775,17.747 4.775,18.012 L4.775,20.179 C4.775,20.443 4.561,20.657 4.296,20.657 C4.032,20.657 3.818,20.443 3.818,20.179 L3.818,18.012 C3.818,17.747 4.032,17.533 4.296,17.533 ZM4.296,23.288 C4.561,23.288 4.775,23.502 4.775,23.766 L4.775,25.933 C4.775,26.198 4.561,26.412 4.296,26.412 C4.032,26.412 3.818,26.198 3.818,25.933 L3.818,23.766 C3.818,23.502 4.032,23.288 4.296,23.288 Z" class="cls-1"/>
</svg>
