<svg xmlns="http://www.w3.org/2000/svg" xmlns:xlink="http://www.w3.org/1999/xlink" preserveAspectRatio="xMidYMid" width="26" height="30" viewBox="0 0 26 30">
  <defs>
    <style>
      .cls-1 {
        fill: #242424;
        fill-rule: evenodd;
      }
    </style>
  </defs>
  <path d="M25.694,29.544 C25.447,29.834 25.086,30.000 24.702,30.000 L1.298,30.000 C1.297,30.000 1.298,30.000 1.297,30.000 C0.914,30.000 0.553,29.834 0.305,29.544 C0.058,29.255 -0.046,28.874 0.018,28.501 L0.469,25.892 C0.510,25.653 0.739,25.493 0.981,25.534 C1.222,25.574 1.384,25.801 1.343,26.039 L0.892,28.648 C0.864,28.811 0.937,28.925 0.983,28.979 C1.029,29.033 1.131,29.123 1.297,29.123 L4.043,29.123 L4.768,24.932 C4.809,24.693 5.038,24.533 5.280,24.574 C5.521,24.615 5.683,24.841 5.642,25.079 L4.943,29.123 L21.057,29.123 L20.358,25.079 C20.317,24.841 20.479,24.615 20.720,24.574 C20.962,24.533 21.190,24.693 21.232,24.932 L21.956,29.123 L24.702,29.123 C24.868,29.123 24.970,29.033 25.017,28.979 C25.063,28.925 25.136,28.811 25.108,28.648 L23.812,21.153 C23.729,20.670 23.382,20.282 22.907,20.141 L17.092,18.406 C17.053,18.395 17.013,18.412 16.995,18.447 L14.218,23.868 C14.087,24.125 13.881,24.327 13.635,24.455 C13.443,24.554 13.226,24.609 13.000,24.609 C12.644,24.609 12.312,24.475 12.063,24.243 C11.950,24.137 11.854,24.011 11.781,23.868 L9.005,18.447 L9.005,18.447 C8.987,18.412 8.946,18.395 8.908,18.406 L3.093,20.141 C2.618,20.282 2.271,20.670 2.187,21.153 L1.701,23.969 C1.660,24.207 1.430,24.368 1.189,24.327 C0.948,24.286 0.786,24.060 0.827,23.822 L1.313,21.006 C1.454,20.193 2.038,19.540 2.837,19.301 L8.652,17.567 C8.908,17.491 9.175,17.524 9.396,17.644 C9.602,17.462 9.753,17.151 9.753,16.863 L9.753,15.428 C9.738,15.415 9.723,15.402 9.708,15.390 C9.686,15.371 9.662,15.350 9.637,15.329 L9.068,15.329 C8.277,15.329 7.544,15.015 7.003,14.445 C6.462,13.876 6.191,13.133 6.241,12.353 L6.399,9.888 L6.399,9.851 C6.399,9.790 6.404,9.730 6.413,9.671 L6.623,6.392 C6.718,4.912 7.507,3.602 8.757,2.817 L8.475,2.089 C8.359,1.789 8.382,1.456 8.538,1.175 C8.695,0.894 8.967,0.696 9.285,0.632 L11.829,0.122 C12.644,-0.042 13.471,-0.042 14.286,0.122 L16.831,0.632 C17.149,0.696 17.421,0.894 17.577,1.175 C17.733,1.456 17.757,1.789 17.641,2.089 L17.335,2.877 C18.024,3.334 18.573,3.959 18.933,4.704 C19.039,4.922 18.945,5.183 18.725,5.288 C18.663,5.317 18.598,5.331 18.534,5.331 C18.368,5.331 18.210,5.239 18.133,5.082 C17.872,4.541 17.487,4.079 17.008,3.722 L17.000,3.742 C16.778,4.317 16.210,4.703 15.587,4.703 L10.528,4.703 C9.905,4.703 9.338,4.317 9.115,3.742 L9.082,3.655 C8.159,4.299 7.580,5.311 7.508,6.447 L7.371,8.582 C7.453,8.559 7.539,8.543 7.627,8.536 L7.627,8.423 C7.627,8.420 7.627,8.418 7.627,8.416 C7.656,6.660 8.986,5.677 9.767,5.373 C10.216,5.198 10.546,5.214 10.747,5.420 C11.714,6.412 13.039,7.770 17.640,8.179 C17.894,8.202 18.110,8.336 18.241,8.532 L18.265,8.532 C18.391,8.532 18.513,8.549 18.629,8.582 L18.524,6.949 C18.509,6.707 18.694,6.499 18.939,6.484 C19.182,6.469 19.394,6.652 19.409,6.893 L19.586,9.654 C19.596,9.718 19.601,9.784 19.601,9.851 L19.601,9.888 L19.759,12.353 C19.809,13.133 19.538,13.876 18.997,14.446 C18.456,15.015 17.722,15.329 16.932,15.329 L16.362,15.329 C16.338,15.350 16.314,15.371 16.292,15.390 C16.277,15.403 16.262,15.416 16.247,15.428 L16.247,16.863 C16.247,17.151 16.397,17.462 16.604,17.644 C16.825,17.525 17.091,17.491 17.348,17.568 L23.163,19.302 C23.962,19.540 24.546,20.193 24.686,21.006 L25.982,28.501 C26.046,28.875 25.941,29.255 25.694,29.544 ZM9.303,1.776 L9.943,3.429 C10.035,3.667 10.270,3.827 10.528,3.827 L15.587,3.827 C15.845,3.827 16.080,3.667 16.172,3.429 L16.813,1.776 C16.844,1.695 16.818,1.629 16.800,1.597 C16.782,1.564 16.739,1.508 16.654,1.491 C16.654,1.491 16.654,1.491 16.654,1.491 L14.110,0.980 C13.761,0.910 13.409,0.875 13.058,0.875 C12.706,0.875 12.355,0.910 12.005,0.980 L9.461,1.491 C9.376,1.508 9.333,1.564 9.315,1.597 C9.297,1.629 9.272,1.695 9.303,1.776 ZM12.572,23.473 C12.656,23.636 12.815,23.733 13.000,23.733 C13.108,23.733 13.206,23.699 13.287,23.639 C13.292,23.635 13.299,23.631 13.304,23.627 C13.330,23.605 13.353,23.580 13.375,23.553 C13.381,23.546 13.387,23.539 13.393,23.531 C13.396,23.527 13.398,23.522 13.401,23.517 C13.410,23.503 13.420,23.488 13.427,23.473 L13.483,23.364 L15.268,19.879 L10.731,19.879 L12.572,23.473 ZM10.283,19.003 L15.717,19.003 L16.060,18.334 C15.642,17.989 15.360,17.425 15.360,16.863 L15.360,16.107 C14.780,16.476 14.054,16.762 13.005,16.774 C13.003,16.774 13.002,16.774 13.000,16.774 C12.998,16.774 12.997,16.774 12.995,16.774 C11.946,16.762 11.220,16.476 10.640,16.107 L10.640,16.863 C10.640,17.425 10.358,17.988 9.940,18.334 L10.283,19.003 ZM7.126,12.408 C7.092,12.944 7.277,13.455 7.649,13.846 C7.951,14.164 8.340,14.366 8.766,14.430 C8.279,13.834 7.800,13.046 7.665,12.146 C7.482,12.137 7.308,12.091 7.151,12.015 L7.126,12.408 ZM18.351,13.846 C18.722,13.455 18.908,12.944 18.874,12.408 L18.849,12.015 C18.692,12.091 18.518,12.137 18.334,12.146 C18.199,13.046 17.721,13.834 17.233,14.430 C17.660,14.366 18.049,14.164 18.351,13.846 ZM17.485,11.701 C17.490,11.463 17.687,11.272 17.928,11.272 L18.266,11.272 C18.513,11.272 18.714,11.073 18.714,10.828 L18.714,9.851 C18.714,9.831 18.713,9.811 18.710,9.791 C18.708,9.785 18.708,9.778 18.707,9.771 C18.668,9.565 18.485,9.408 18.265,9.408 L17.929,9.408 C17.711,9.408 17.529,9.251 17.493,9.045 C13.119,8.646 11.522,7.454 10.222,6.143 C9.817,6.251 8.540,6.944 8.514,8.427 L8.514,8.970 C8.514,9.212 8.315,9.408 8.071,9.408 L7.734,9.408 C7.515,9.408 7.332,9.565 7.293,9.771 C7.292,9.778 7.291,9.785 7.290,9.791 C7.287,9.811 7.286,9.831 7.286,9.851 L7.286,10.828 C7.286,11.073 7.487,11.272 7.734,11.272 L8.072,11.272 C8.313,11.272 8.510,11.463 8.515,11.701 C8.536,12.669 9.198,13.800 10.287,14.726 C11.106,15.424 11.738,15.882 13.000,15.897 C14.262,15.882 14.894,15.424 15.713,14.726 C16.802,13.800 17.464,12.669 17.485,11.701 ZM12.219,1.885 L12.557,1.885 L12.557,1.552 C12.557,1.309 12.755,1.113 13.000,1.113 C13.245,1.113 13.443,1.309 13.443,1.552 L13.443,1.885 L13.780,1.885 C14.025,1.885 14.224,2.081 14.224,2.323 C14.224,2.565 14.025,2.761 13.780,2.761 L13.443,2.761 L13.443,3.094 C13.443,3.336 13.245,3.533 13.000,3.533 C12.755,3.533 12.557,3.336 12.557,3.094 L12.557,2.761 L12.219,2.761 C11.974,2.761 11.776,2.565 11.776,2.323 C11.776,2.081 11.974,1.885 12.219,1.885 Z" class="cls-1"/>
</svg>
