<svg xmlns="http://www.w3.org/2000/svg" xmlns:xlink="http://www.w3.org/1999/xlink" preserveAspectRatio="xMidYMid" width="110" height="30" viewBox="0 0 110 30">
  <defs>
    <style>
      .cls-1, .cls-3 {
        fill: #54a6d6;
      }

      .cls-1, .cls-2, .cls-4 {
        fill-rule: evenodd;
      }

      .cls-2 {
        fill: #242424;
      }

      .cls-4 {
        fill: #fff;
      }
    </style>
  </defs>
  <g>
    <path d="M107.519,21.731 C107.313,21.550 107.025,21.460 106.654,21.460 C106.296,21.460 106.018,21.536 105.819,21.687 C105.621,21.838 105.521,22.038 105.521,22.285 C105.521,22.516 105.638,22.710 105.871,22.866 C106.103,23.022 106.446,23.169 106.898,23.306 C107.732,23.556 108.339,23.867 108.720,24.238 C109.101,24.609 109.291,25.072 109.291,25.625 C109.291,26.240 109.058,26.723 108.593,27.073 C108.127,27.423 107.501,27.598 106.713,27.598 C106.166,27.598 105.668,27.498 105.219,27.297 C104.770,27.097 104.427,26.823 104.191,26.475 C103.955,26.126 103.837,25.723 103.837,25.264 L105.307,25.264 C105.307,26.048 105.775,26.440 106.713,26.440 C107.061,26.440 107.333,26.370 107.528,26.228 C107.724,26.086 107.821,25.889 107.821,25.635 C107.821,25.358 107.724,25.146 107.528,24.998 C107.333,24.849 106.981,24.693 106.474,24.529 C105.966,24.364 105.564,24.202 105.268,24.043 C104.460,23.607 104.057,23.019 104.057,22.280 C104.057,21.896 104.165,21.554 104.381,21.252 C104.598,20.951 104.909,20.716 105.314,20.547 C105.719,20.378 106.174,20.293 106.679,20.293 C107.187,20.293 107.639,20.385 108.036,20.569 C108.433,20.753 108.742,21.012 108.961,21.348 C109.181,21.683 109.291,22.064 109.291,22.490 L107.826,22.490 C107.826,22.165 107.724,21.912 107.519,21.731 ZM103.418,25.410 C103.418,26.094 103.200,26.611 102.764,26.963 C102.327,27.314 101.706,27.494 100.898,27.500 L98.135,27.500 L98.135,20.391 L100.625,20.391 C101.488,20.391 102.142,20.556 102.588,20.886 C103.034,21.217 103.257,21.701 103.257,22.339 C103.257,22.687 103.167,22.994 102.988,23.259 C102.809,23.525 102.560,23.719 102.241,23.843 C102.606,23.934 102.893,24.118 103.103,24.395 C103.313,24.671 103.418,25.010 103.418,25.410 ZM101.511,21.790 C101.324,21.648 101.029,21.577 100.625,21.577 L99.600,21.577 L99.600,23.369 L100.684,23.369 C101.423,23.356 101.792,23.062 101.792,22.485 C101.792,22.163 101.698,21.931 101.511,21.790 ZM100.942,24.404 L99.600,24.404 L99.600,26.323 L100.854,26.323 C101.199,26.323 101.469,26.241 101.663,26.077 C101.856,25.912 101.953,25.685 101.953,25.396 C101.953,24.744 101.616,24.414 100.942,24.404 ZM95.542,27.168 C95.081,27.454 94.553,27.598 93.957,27.598 C93.368,27.598 92.842,27.456 92.380,27.173 C91.918,26.890 91.560,26.485 91.306,25.959 C91.052,25.434 90.923,24.829 90.920,24.146 L90.920,23.794 C90.920,23.094 91.046,22.478 91.298,21.946 C91.551,21.414 91.907,21.005 92.368,20.720 C92.828,20.435 93.355,20.293 93.947,20.293 C94.540,20.293 95.066,20.435 95.527,20.720 C95.987,21.005 96.344,21.414 96.596,21.946 C96.848,22.478 96.975,23.092 96.975,23.789 L96.975,24.106 C96.975,24.806 96.851,25.420 96.604,25.947 C96.356,26.475 96.002,26.882 95.542,27.168 ZM95.490,23.784 C95.490,23.039 95.357,22.472 95.090,22.085 C94.823,21.698 94.442,21.504 93.947,21.504 C93.456,21.504 93.076,21.695 92.810,22.078 C92.543,22.460 92.408,23.021 92.404,23.760 L92.404,24.106 C92.404,24.832 92.538,25.396 92.805,25.796 C93.072,26.196 93.456,26.396 93.957,26.396 C94.449,26.396 94.826,26.204 95.090,25.818 C95.354,25.432 95.487,24.870 95.490,24.131 L95.490,23.784 ZM88.318,27.314 C87.954,27.503 87.542,27.598 87.083,27.598 C86.331,27.598 85.745,27.406 85.325,27.024 C84.905,26.641 84.695,26.100 84.695,25.400 L86.170,25.400 C86.170,25.749 86.243,26.006 86.390,26.172 C86.536,26.338 86.767,26.421 87.083,26.421 C87.363,26.421 87.586,26.325 87.752,26.133 C87.918,25.941 88.001,25.667 88.001,25.313 L88.001,20.391 L89.466,20.391 L89.466,25.313 C89.466,25.765 89.366,26.165 89.166,26.511 C88.965,26.858 88.683,27.126 88.318,27.314 ZM78.135,20.391 L79.600,20.391 L79.600,26.323 L82.710,26.323 L82.710,27.500 L78.135,27.500 L78.135,20.391 ZM75.148,26.035 L72.580,26.035 L72.092,27.500 L70.534,27.500 L73.181,20.391 L74.538,20.391 L77.199,27.500 L75.642,27.500 L75.148,26.035 ZM73.859,22.188 L72.976,24.849 L74.753,24.849 L73.859,22.188 ZM67.877,21.804 C67.658,21.598 67.323,21.494 66.874,21.494 C66.386,21.494 66.020,21.669 65.778,22.019 C65.535,22.369 65.411,22.912 65.404,23.647 L65.404,24.185 C65.404,24.953 65.521,25.514 65.753,25.869 C65.986,26.224 66.353,26.401 66.854,26.401 C67.307,26.401 67.645,26.298 67.868,26.091 C68.091,25.885 68.218,25.565 68.251,25.132 L69.716,25.132 C69.660,25.897 69.378,26.499 68.869,26.938 C68.359,27.378 67.688,27.598 66.854,27.598 C65.943,27.598 65.226,27.291 64.704,26.677 C64.181,26.064 63.920,25.221 63.920,24.150 L63.920,23.716 C63.920,23.032 64.040,22.430 64.281,21.909 C64.522,21.388 64.866,20.989 65.314,20.710 C65.762,20.432 66.282,20.293 66.874,20.293 C67.694,20.293 68.355,20.513 68.856,20.952 C69.358,21.392 69.647,22.009 69.726,22.803 L68.261,22.803 C68.225,22.344 68.097,22.011 67.877,21.804 ZM61.228,20.391 L62.692,20.391 L62.692,27.500 L61.228,27.500 L61.228,20.391 ZM59.012,27.070 C58.517,27.354 57.959,27.497 57.337,27.500 L55.135,27.500 L55.135,20.391 L57.322,20.391 C57.947,20.391 58.506,20.531 59.000,20.813 C59.493,21.095 59.878,21.495 60.154,22.014 C60.431,22.533 60.569,23.123 60.569,23.784 L60.569,24.111 C60.569,24.772 60.433,25.360 60.162,25.874 C59.890,26.388 59.506,26.787 59.012,27.070 ZM59.085,23.779 C59.085,23.057 58.935,22.509 58.636,22.136 C58.336,21.764 57.898,21.577 57.322,21.577 L56.600,21.577 L56.600,26.323 L57.308,26.323 C57.881,26.323 58.318,26.136 58.621,25.762 C58.924,25.387 59.078,24.852 59.085,24.155 L59.085,23.779 ZM49.135,20.391 L53.891,20.391 L53.891,21.577 L50.600,21.577 L50.600,23.271 L53.412,23.271 L53.412,24.409 L50.600,24.409 L50.600,26.323 L53.900,26.323 L53.900,27.500 L49.135,27.500 L49.135,20.391 ZM46.146,25.557 L46.292,22.202 L44.373,27.500 L43.367,27.500 L41.453,22.207 L41.600,25.557 L41.600,27.500 L40.135,27.500 L40.135,20.391 L42.049,20.391 L43.875,25.547 L45.691,20.391 L47.615,20.391 L47.615,27.500 L46.146,27.500 L46.146,25.557 Z" class="cls-1"/>
    <path d="M95.466,10.532 L95.466,15.500 L92.658,15.500 L92.658,10.532 L88.302,2.918 L91.344,2.918 L94.062,7.598 L96.780,2.918 L99.822,2.918 L95.466,10.532 ZM83.556,15.500 L78.048,15.500 L78.048,2.918 L82.944,2.918 C83.796,2.918 84.531,3.020 85.149,3.224 C85.767,3.428 86.232,3.704 86.544,4.052 C87.108,4.700 87.390,5.432 87.390,6.248 C87.390,7.232 87.072,7.964 86.436,8.444 C86.220,8.612 86.070,8.717 85.986,8.759 C85.902,8.801 85.752,8.870 85.536,8.966 C86.316,9.134 86.937,9.485 87.399,10.019 C87.861,10.553 88.092,11.216 88.092,12.008 C88.092,12.884 87.792,13.658 87.192,14.330 C86.496,15.110 85.284,15.500 83.556,15.500 ZM83.970,5.564 C83.622,5.384 83.034,5.294 82.206,5.294 L80.856,5.294 L80.856,8.012 L82.188,8.012 C82.968,8.012 83.547,7.928 83.925,7.760 C84.303,7.592 84.492,7.229 84.492,6.671 C84.492,6.113 84.318,5.744 83.970,5.564 ZM84.555,10.505 C84.129,10.319 83.448,10.226 82.512,10.226 L80.856,10.226 L80.856,13.124 L82.782,13.124 C83.586,13.124 84.189,13.025 84.591,12.827 C84.993,12.629 85.194,12.239 85.194,11.657 C85.194,11.075 84.981,10.691 84.555,10.505 ZM71.556,15.500 L66.048,15.500 L66.048,2.918 L70.944,2.918 C71.796,2.918 72.531,3.020 73.149,3.224 C73.767,3.428 74.232,3.704 74.544,4.052 C75.108,4.700 75.390,5.432 75.390,6.248 C75.390,7.232 75.072,7.964 74.436,8.444 C74.220,8.612 74.070,8.717 73.986,8.759 C73.902,8.801 73.752,8.870 73.536,8.966 C74.316,9.134 74.937,9.485 75.399,10.019 C75.861,10.553 76.092,11.216 76.092,12.008 C76.092,12.884 75.792,13.658 75.192,14.330 C74.496,15.110 73.284,15.500 71.556,15.500 ZM71.970,5.564 C71.622,5.384 71.034,5.294 70.206,5.294 L68.856,5.294 L68.856,8.012 L70.188,8.012 C70.968,8.012 71.547,7.928 71.925,7.760 C72.303,7.592 72.492,7.229 72.492,6.671 C72.492,6.113 72.318,5.744 71.970,5.564 ZM72.555,10.505 C72.129,10.319 71.448,10.226 70.512,10.226 L68.856,10.226 L68.856,13.124 L70.782,13.124 C71.586,13.124 72.189,13.025 72.591,12.827 C72.993,12.629 73.194,12.239 73.194,11.657 C73.194,11.075 72.981,10.691 72.555,10.505 ZM56.934,15.626 C55.074,15.626 53.508,15.005 52.236,13.763 C50.964,12.521 50.328,10.976 50.328,9.128 C50.328,7.280 50.964,5.735 52.236,4.493 C53.508,3.251 55.074,2.630 56.934,2.630 C58.794,2.630 60.360,3.251 61.632,4.493 C62.904,5.735 63.540,7.280 63.540,9.128 C63.540,10.976 62.904,12.521 61.632,13.763 C60.360,15.005 58.794,15.626 56.934,15.626 ZM59.598,6.266 C58.878,5.474 57.993,5.078 56.943,5.078 C55.893,5.078 55.008,5.474 54.288,6.266 C53.568,7.058 53.208,8.015 53.208,9.137 C53.208,10.259 53.568,11.213 54.288,11.999 C55.008,12.785 55.893,13.178 56.943,13.178 C57.993,13.178 58.878,12.785 59.598,11.999 C60.318,11.213 60.678,10.259 60.678,9.137 C60.678,8.015 60.318,7.058 59.598,6.266 ZM43.928,15.608 C42.416,15.608 41.096,15.026 39.968,13.862 L41.426,11.846 C42.182,12.662 42.974,13.070 43.802,13.070 C44.198,13.070 44.537,12.917 44.819,12.611 C45.101,12.305 45.242,11.846 45.242,11.234 L45.242,5.330 L41.516,5.330 L41.516,2.918 L48.068,2.918 L48.068,11.126 C48.068,12.626 47.681,13.748 46.907,14.492 C46.133,15.236 45.140,15.608 43.928,15.608 Z" class="cls-2"/>
    <circle cx="15" cy="15" r="15" class="cls-3"/>
    <path d="M23.411,16.110 C23.299,16.110 23.191,16.098 23.086,16.076 C22.363,15.927 21.821,15.287 21.821,14.521 C21.821,13.967 22.104,13.481 22.532,13.197 C22.783,13.028 23.085,12.931 23.411,12.931 C24.288,12.931 25.000,13.642 25.000,14.521 C25.000,15.398 24.288,16.110 23.411,16.110 ZM19.064,13.970 L19.228,14.183 L22.319,18.221 C22.406,18.335 22.462,18.461 22.499,18.590 C22.511,18.632 22.512,18.673 22.519,18.716 C22.529,18.777 22.549,18.838 22.549,18.900 C22.549,18.922 22.535,18.942 22.534,18.964 C22.528,19.070 22.500,19.169 22.464,19.270 C22.447,19.318 22.440,19.366 22.417,19.411 C22.344,19.552 22.246,19.682 22.112,19.785 C22.111,19.786 22.110,19.786 22.109,19.787 C22.108,19.788 22.107,19.789 22.106,19.790 C21.994,19.874 21.871,19.928 21.744,19.965 L21.744,19.965 C21.706,19.976 21.669,19.978 21.630,19.985 C21.571,19.995 21.512,20.014 21.453,20.015 C21.447,20.015 21.440,20.015 21.434,20.015 C21.432,20.015 21.430,20.015 21.428,20.015 C21.297,20.014 21.169,19.983 21.046,19.937 C21.039,19.935 21.034,19.931 21.028,19.928 C20.956,19.900 20.884,19.873 20.818,19.830 C20.718,19.763 20.626,19.679 20.548,19.577 L17.152,15.142 C16.881,14.790 16.749,14.368 16.749,13.949 C16.749,13.441 16.943,12.936 17.323,12.557 L18.456,11.424 L19.570,10.309 C19.608,10.271 19.649,10.236 19.691,10.205 C19.744,10.165 19.805,10.144 19.862,10.115 C19.900,10.096 19.934,10.072 19.973,10.058 C20.097,10.012 20.226,9.983 20.357,9.983 C20.473,9.983 20.587,10.013 20.699,10.049 C20.862,10.101 21.018,10.180 21.147,10.309 C21.582,10.745 21.582,11.452 21.147,11.887 L19.064,13.970 ZM19.932,8.934 C19.915,8.982 19.908,9.031 19.884,9.078 C19.810,9.218 19.713,9.348 19.579,9.450 L15.143,12.846 C14.791,13.117 14.369,13.250 13.950,13.250 C13.442,13.250 12.937,13.056 12.558,12.675 L11.425,11.543 L10.311,10.428 C10.093,10.211 9.984,9.926 9.984,9.640 C9.984,9.497 10.011,9.354 10.065,9.220 C10.120,9.086 10.202,8.960 10.311,8.852 C10.529,8.634 10.814,8.525 11.100,8.525 C11.241,8.525 11.381,8.553 11.514,8.606 C11.550,8.620 11.578,8.651 11.613,8.669 C11.702,8.716 11.793,8.760 11.870,8.833 C11.876,8.839 11.882,8.846 11.888,8.852 L13.971,10.935 L14.184,10.771 L18.222,7.679 C18.336,7.593 18.462,7.537 18.591,7.500 C18.633,7.488 18.674,7.487 18.716,7.480 C18.777,7.469 18.838,7.450 18.900,7.450 C18.922,7.450 18.942,7.463 18.965,7.465 C19.069,7.471 19.166,7.498 19.265,7.533 C19.314,7.550 19.364,7.558 19.411,7.582 C19.537,7.647 19.650,7.738 19.747,7.853 C19.757,7.865 19.772,7.869 19.782,7.881 C19.782,7.881 19.782,7.882 19.783,7.882 C19.783,7.883 19.784,7.884 19.785,7.885 C19.785,7.885 19.786,7.887 19.786,7.887 C19.873,8.001 19.929,8.126 19.966,8.256 C19.978,8.297 19.979,8.338 19.986,8.380 C19.997,8.442 20.016,8.503 20.016,8.565 C20.016,8.587 20.003,8.607 20.001,8.629 C19.995,8.735 19.967,8.834 19.932,8.934 ZM14.522,8.177 C13.968,8.177 13.482,7.895 13.198,7.468 C13.197,7.467 13.197,7.467 13.197,7.466 C13.148,7.392 13.105,7.315 13.068,7.233 C13.059,7.212 13.062,7.186 13.054,7.164 C12.987,6.996 12.943,6.818 12.938,6.626 C12.938,6.617 12.932,6.609 12.932,6.600 C12.932,6.596 12.932,6.592 12.932,6.588 C12.932,5.710 13.644,4.999 14.522,4.999 C14.539,4.999 14.556,4.999 14.573,5.000 C14.693,5.003 14.799,5.049 14.911,5.078 C14.992,5.099 15.080,5.101 15.155,5.134 C15.271,5.184 15.364,5.266 15.463,5.342 C15.525,5.388 15.598,5.419 15.652,5.474 C15.746,5.569 15.808,5.689 15.875,5.805 C15.910,5.864 15.960,5.912 15.987,5.975 C16.063,6.157 16.103,6.357 16.106,6.565 C16.106,6.573 16.111,6.580 16.111,6.588 C16.111,6.700 16.100,6.808 16.077,6.912 C15.928,7.635 15.288,8.177 14.522,8.177 ZM12.853,14.865 C12.982,15.035 13.078,15.221 13.144,15.415 C13.167,15.481 13.167,15.550 13.182,15.618 C13.210,15.742 13.247,15.864 13.250,15.990 C13.251,16.010 13.251,16.029 13.251,16.049 C13.251,16.556 13.057,17.061 12.677,17.441 L11.544,18.574 L10.430,19.688 C10.302,19.816 10.148,19.895 9.988,19.948 C9.988,19.948 9.988,19.948 9.988,19.948 C9.875,19.985 9.759,20.015 9.641,20.015 L9.641,20.015 C9.590,20.015 9.541,19.994 9.490,19.987 C9.431,19.980 9.372,19.970 9.314,19.953 C9.266,19.938 9.221,19.923 9.174,19.901 C9.078,19.858 8.988,19.801 8.905,19.727 C8.894,19.717 8.879,19.714 8.868,19.703 C8.863,19.698 8.858,19.694 8.853,19.688 C8.418,19.253 8.418,18.546 8.853,18.111 L10.936,16.028 L10.772,15.815 L7.680,11.776 C7.594,11.663 7.538,11.537 7.501,11.408 C7.489,11.366 7.488,11.325 7.481,11.283 C7.470,11.221 7.451,11.160 7.451,11.098 C7.451,11.076 7.464,11.056 7.466,11.034 C7.472,10.928 7.500,10.830 7.535,10.729 C7.553,10.681 7.560,10.632 7.584,10.586 C7.657,10.445 7.754,10.316 7.888,10.213 C8.001,10.126 8.127,10.070 8.256,10.033 C8.298,10.021 8.339,10.019 8.382,10.012 C8.443,10.002 8.504,9.983 8.565,9.983 C8.565,9.983 8.565,9.983 8.565,9.983 C8.566,9.983 8.566,9.983 8.566,9.983 C8.588,9.983 8.608,9.996 8.631,9.997 C8.734,10.003 8.830,10.030 8.928,10.065 C8.978,10.082 9.028,10.090 9.075,10.114 C9.199,10.178 9.309,10.268 9.405,10.379 C9.417,10.393 9.434,10.397 9.445,10.411 C9.445,10.412 9.446,10.413 9.446,10.413 C9.446,10.413 9.446,10.413 9.446,10.413 C9.448,10.415 9.450,10.418 9.451,10.420 L12.848,14.856 C12.850,14.859 12.850,14.863 12.853,14.865 ZM8.178,15.477 C8.178,16.030 7.896,16.517 7.468,16.801 C7.217,16.970 6.915,17.066 6.589,17.066 C6.370,17.066 6.162,17.022 5.972,16.942 C5.972,16.942 5.972,16.942 5.972,16.942 C5.907,16.914 5.859,16.861 5.798,16.825 C5.797,16.824 5.795,16.823 5.793,16.822 C5.680,16.755 5.561,16.695 5.468,16.603 C5.468,16.603 5.468,16.603 5.468,16.603 C5.415,16.549 5.386,16.476 5.340,16.415 C5.339,16.414 5.339,16.413 5.338,16.412 C5.263,16.311 5.178,16.217 5.128,16.100 C5.128,16.100 5.128,16.100 5.128,16.100 C5.097,16.027 5.098,15.941 5.078,15.863 C5.047,15.741 5.001,15.625 5.000,15.493 C5.000,15.488 5.000,15.482 5.000,15.477 C5.000,14.600 5.711,13.888 6.589,13.888 C6.701,13.888 6.809,13.899 6.914,13.921 C7.637,14.071 8.178,14.711 8.178,15.477 ZM14.857,17.151 C15.209,16.881 15.631,16.748 16.050,16.748 C16.557,16.748 17.063,16.941 17.442,17.322 L18.575,18.455 L19.689,19.569 C19.862,19.741 19.946,19.959 19.982,20.182 C19.992,20.241 20.016,20.298 20.016,20.357 C20.016,20.358 20.016,20.358 20.016,20.358 C20.016,20.450 19.986,20.539 19.963,20.629 C19.916,20.817 19.837,20.999 19.689,21.146 C19.471,21.364 19.186,21.472 18.900,21.472 C18.759,21.472 18.618,21.445 18.485,21.392 C18.447,21.376 18.417,21.344 18.381,21.324 C18.292,21.277 18.202,21.233 18.126,21.160 C18.121,21.155 18.117,21.151 18.112,21.146 L16.029,19.063 C15.958,19.118 15.882,19.166 15.816,19.227 L11.777,22.319 C11.775,22.321 11.773,22.322 11.770,22.323 C11.770,22.324 11.770,22.324 11.770,22.324 C11.769,22.324 11.768,22.325 11.767,22.326 C11.656,22.409 11.533,22.463 11.407,22.499 C11.367,22.510 11.328,22.511 11.287,22.518 C11.225,22.529 11.163,22.548 11.100,22.548 C11.100,22.548 11.100,22.548 11.100,22.548 C11.100,22.548 11.100,22.548 11.100,22.548 C11.077,22.548 11.057,22.534 11.035,22.533 C10.932,22.527 10.836,22.500 10.738,22.466 C10.688,22.449 10.637,22.441 10.590,22.416 C10.466,22.352 10.356,22.263 10.261,22.152 C10.249,22.138 10.231,22.134 10.220,22.119 C10.220,22.119 10.220,22.119 10.220,22.119 C10.218,22.117 10.217,22.115 10.215,22.113 C10.215,22.112 10.214,22.111 10.214,22.111 C9.839,21.621 9.932,20.922 10.421,20.547 L14.857,17.151 ZM14.101,22.634 C14.123,22.593 14.149,22.558 14.175,22.520 C14.207,22.474 14.231,22.423 14.266,22.381 C14.318,22.321 14.379,22.269 14.438,22.217 C14.455,22.203 14.468,22.186 14.485,22.173 C14.607,22.075 14.744,21.999 14.891,21.941 C14.924,21.928 14.956,21.918 14.989,21.907 C15.145,21.856 15.306,21.821 15.478,21.821 C16.032,21.821 16.518,22.102 16.802,22.531 C16.971,22.782 17.068,23.084 17.068,23.409 C17.068,24.287 16.356,24.999 15.478,24.999 C14.601,24.999 13.889,24.287 13.889,23.409 C13.889,23.298 13.900,23.190 13.922,23.085 C13.956,22.922 14.021,22.774 14.101,22.634 Z" class="cls-4"/>
  </g>
</svg>
