<svg xmlns="http://www.w3.org/2000/svg" xmlns:xlink="http://www.w3.org/1999/xlink" preserveAspectRatio="xMidYMid" width="50" height="50" viewBox="0 0 50 50">
  <defs>
    <style>
      .cls-1 {
        fill: #54a6d6;
        fill-rule: evenodd;
      }
    </style>
  </defs>
  <path d="M-0.000,50.000 L-0.000,45.000 L2.500,45.000 L2.500,11.667 L10.833,11.667 L10.833,-0.000 L39.167,-0.000 L39.167,11.667 L47.500,11.667 L47.500,45.000 L50.000,45.000 L50.000,50.000 L-0.000,50.000 ZM10.833,13.333 L4.167,13.333 L4.167,45.000 L10.833,45.000 L10.833,13.333 ZM37.500,1.667 L12.500,1.667 L12.500,45.000 L19.167,45.000 L19.167,36.667 L30.833,36.667 L30.833,45.000 L37.500,45.000 L37.500,1.667 ZM20.833,38.333 L20.833,45.000 L24.167,45.000 L24.167,38.333 L20.833,38.333 ZM25.833,38.333 L25.833,45.000 L29.167,45.000 L29.167,38.333 L25.833,38.333 ZM45.833,13.333 L39.167,13.333 L39.167,45.000 L45.833,45.000 L45.833,13.333 ZM48.333,46.667 L1.667,46.667 L1.667,48.333 L48.333,48.333 L48.333,46.667 ZM43.333,19.167 L41.667,19.167 L41.667,16.667 L43.333,16.667 L43.333,19.167 ZM43.333,24.167 L41.667,24.167 L41.667,21.667 L43.333,21.667 L43.333,24.167 ZM43.333,29.167 L41.667,29.167 L41.667,26.667 L43.333,26.667 L43.333,29.167 ZM43.333,34.167 L41.667,34.167 L41.667,31.667 L43.333,31.667 L43.333,34.167 ZM43.333,39.167 L41.667,39.167 L41.667,36.667 L43.333,36.667 L43.333,39.167 ZM34.167,19.167 L32.500,19.167 L32.500,16.667 L34.167,16.667 L34.167,19.167 ZM34.167,24.167 L32.500,24.167 L32.500,21.667 L34.167,21.667 L34.167,24.167 ZM34.167,29.167 L32.500,29.167 L32.500,26.667 L34.167,26.667 L34.167,29.167 ZM34.167,34.167 L32.500,34.167 L32.500,31.667 L34.167,31.667 L34.167,34.167 ZM28.333,31.667 L30.000,31.667 L30.000,34.167 L28.333,34.167 L28.333,31.667 ZM28.333,26.667 L30.000,26.667 L30.000,29.167 L28.333,29.167 L28.333,26.667 ZM28.333,21.667 L30.000,21.667 L30.000,24.167 L28.333,24.167 L28.333,21.667 ZM28.333,16.667 L30.000,16.667 L30.000,19.167 L28.333,19.167 L28.333,16.667 ZM27.500,14.167 L22.500,14.167 L22.500,11.667 L20.000,11.667 L20.000,6.667 L22.500,6.667 L22.500,4.167 L27.500,4.167 L27.500,6.667 L30.000,6.667 L30.000,11.667 L27.500,11.667 L27.500,14.167 ZM28.333,10.000 L28.333,8.333 L25.833,8.333 L25.833,5.833 L24.167,5.833 L24.167,8.333 L21.667,8.333 L21.667,10.000 L24.167,10.000 L24.167,12.500 L25.833,12.500 L25.833,10.000 L28.333,10.000 ZM21.667,19.167 L20.000,19.167 L20.000,16.667 L21.667,16.667 L21.667,19.167 ZM21.667,24.167 L20.000,24.167 L20.000,21.667 L21.667,21.667 L21.667,24.167 ZM21.667,29.167 L20.000,29.167 L20.000,26.667 L21.667,26.667 L21.667,29.167 ZM21.667,34.167 L20.000,34.167 L20.000,31.667 L21.667,31.667 L21.667,34.167 ZM25.833,19.167 L24.167,19.167 L24.167,16.667 L25.833,16.667 L25.833,19.167 ZM25.833,24.167 L24.167,24.167 L24.167,21.667 L25.833,21.667 L25.833,24.167 ZM25.833,29.167 L24.167,29.167 L24.167,26.667 L25.833,26.667 L25.833,29.167 ZM25.833,34.167 L24.167,34.167 L24.167,31.667 L25.833,31.667 L25.833,34.167 ZM15.833,31.667 L17.500,31.667 L17.500,34.167 L15.833,34.167 L15.833,31.667 ZM15.833,26.667 L17.500,26.667 L17.500,29.167 L15.833,29.167 L15.833,26.667 ZM15.833,21.667 L17.500,21.667 L17.500,24.167 L15.833,24.167 L15.833,21.667 ZM15.833,16.667 L17.500,16.667 L17.500,19.167 L15.833,19.167 L15.833,16.667 ZM8.333,19.167 L6.667,19.167 L6.667,16.667 L8.333,16.667 L8.333,19.167 ZM8.333,24.167 L6.667,24.167 L6.667,21.667 L8.333,21.667 L8.333,24.167 ZM8.333,29.167 L6.667,29.167 L6.667,26.667 L8.333,26.667 L8.333,29.167 ZM8.333,34.167 L6.667,34.167 L6.667,31.667 L8.333,31.667 L8.333,34.167 ZM8.333,39.167 L6.667,39.167 L6.667,36.667 L8.333,36.667 L8.333,39.167 Z" class="cls-1"/>
</svg>
