<svg xmlns="http://www.w3.org/2000/svg" xmlns:xlink="http://www.w3.org/1999/xlink" preserveAspectRatio="xMidYMid" width="26" height="30" viewBox="0 0 26 30">
  <defs>
    <style>
      .cls-1 {
        fill: #242424;
        fill-rule: evenodd;
      }
    </style>
  </defs>
  <path d="M25.982,28.464 L24.686,20.694 C24.546,19.857 23.966,19.184 23.171,18.939 L19.673,17.859 C19.601,16.984 19.250,16.158 18.667,15.505 C18.200,14.982 17.613,14.602 16.966,14.392 C17.076,14.266 17.179,14.140 17.273,14.018 C18.105,12.935 18.551,11.743 18.664,10.929 L18.934,10.929 C19.636,10.929 20.207,10.345 20.207,9.626 L20.207,8.958 C20.207,8.479 19.943,8.045 19.547,7.819 L19.547,6.214 C19.547,5.971 19.355,5.774 19.118,5.774 C18.880,5.774 18.688,5.971 18.688,6.214 L18.688,8.016 C18.521,8.046 18.322,8.097 18.118,8.185 C18.097,8.193 18.076,8.202 18.057,8.213 C18.011,8.234 17.965,8.257 17.919,8.283 L17.919,4.742 C17.919,3.764 17.141,2.968 16.186,2.968 L15.001,2.968 C14.592,2.968 14.193,3.114 13.876,3.379 L13.760,3.476 C13.546,3.655 13.277,3.753 13.001,3.753 C12.725,3.753 12.455,3.655 12.242,3.476 L12.126,3.379 C11.809,3.114 11.410,2.968 11.001,2.968 L9.816,2.968 C8.860,2.968 8.083,3.764 8.083,4.742 L8.083,8.283 C8.037,8.257 7.991,8.234 7.945,8.213 C7.925,8.202 7.905,8.193 7.884,8.185 C7.680,8.097 7.481,8.046 7.313,8.016 L7.313,3.458 C7.313,2.036 8.444,0.878 9.834,0.878 L16.167,0.878 C17.557,0.878 18.688,2.036 18.688,3.458 L18.688,4.149 C18.688,4.391 18.880,4.588 19.117,4.588 C19.355,4.588 19.547,4.391 19.547,4.149 L19.547,3.458 C19.547,1.551 18.031,-0.000 16.167,-0.000 L9.834,-0.000 C7.971,-0.000 6.455,1.551 6.455,3.458 L6.455,7.819 C6.059,8.045 5.795,8.479 5.795,8.958 L5.795,9.626 C5.795,10.345 6.366,10.929 7.068,10.929 L7.338,10.929 C7.451,11.743 7.897,12.935 8.728,14.018 C8.822,14.140 8.925,14.266 9.036,14.391 C7.548,14.875 6.463,16.244 6.329,17.859 L2.831,18.939 C2.036,19.184 1.456,19.857 1.316,20.694 L0.789,23.849 C0.749,24.088 0.907,24.315 1.140,24.356 C1.374,24.397 1.596,24.236 1.636,23.997 L2.162,20.842 C2.247,20.335 2.598,19.928 3.079,19.780 L6.314,18.781 L6.314,19.650 C5.572,19.790 4.941,20.311 4.681,21.033 C4.612,21.225 4.570,21.426 4.554,21.630 L4.241,25.737 C4.218,26.047 4.322,26.355 4.528,26.582 C4.734,26.810 5.026,26.941 5.329,26.941 L5.864,26.941 C6.101,26.941 6.294,26.744 6.294,26.501 C6.294,26.259 6.101,26.062 5.864,26.062 L5.329,26.062 C5.264,26.062 5.202,26.034 5.158,25.986 C5.115,25.937 5.092,25.871 5.097,25.806 L5.410,21.699 C5.419,21.575 5.445,21.453 5.487,21.337 C5.668,20.835 6.156,20.494 6.702,20.490 L6.773,20.490 C6.776,20.490 6.780,20.490 6.783,20.490 C7.314,20.490 7.783,20.798 7.982,21.277 C8.037,21.411 8.071,21.553 8.082,21.699 L8.395,25.806 C8.400,25.871 8.378,25.937 8.334,25.986 C8.290,26.034 8.228,26.062 8.163,26.062 L7.628,26.062 C7.391,26.062 7.198,26.259 7.198,26.501 C7.198,26.744 7.391,26.941 7.628,26.941 L8.163,26.941 C8.466,26.941 8.758,26.810 8.964,26.582 C9.170,26.355 9.274,26.047 9.251,25.737 L8.938,21.630 C8.920,21.390 8.864,21.155 8.772,20.934 C8.489,20.251 7.885,19.776 7.172,19.647 L7.172,18.516 L8.648,18.061 C8.782,18.350 9.049,18.975 9.576,20.323 C10.107,21.683 10.767,23.427 11.400,25.122 C11.405,25.136 11.410,25.150 11.416,25.164 C11.838,26.295 12.248,27.403 12.599,28.359 C12.662,28.531 12.822,28.644 13.001,28.644 C13.180,28.644 13.340,28.531 13.403,28.359 C13.753,27.403 14.163,26.295 14.586,25.164 C14.592,25.150 14.597,25.136 14.601,25.122 C15.234,23.428 15.894,21.686 16.425,20.326 C16.953,18.976 17.219,18.350 17.353,18.061 L18.829,18.516 L18.829,21.111 C17.807,21.314 17.032,22.237 17.032,23.342 C17.032,24.595 18.028,25.615 19.253,25.615 C20.478,25.615 21.475,24.596 21.475,23.342 C21.475,22.240 20.705,21.320 19.688,21.113 L19.688,18.781 L22.923,19.780 C23.404,19.928 23.755,20.336 23.839,20.842 L25.136,28.612 C25.158,28.740 25.124,28.866 25.042,28.966 C24.959,29.066 24.844,29.121 24.716,29.121 L1.286,29.121 C1.158,29.121 1.042,29.066 0.960,28.966 C0.877,28.866 0.844,28.741 0.865,28.612 L1.293,26.047 C1.333,25.808 1.176,25.581 0.943,25.540 C0.709,25.500 0.487,25.660 0.447,25.900 L0.019,28.464 C-0.045,28.847 0.059,29.236 0.304,29.533 C0.548,29.830 0.906,30.000 1.286,30.000 L24.716,30.000 C25.095,30.000 25.453,29.830 25.698,29.533 C25.943,29.236 26.046,28.847 25.982,28.464 ZM18.693,8.911 C18.922,8.853 19.106,8.854 19.108,8.854 C19.182,8.855 19.254,8.837 19.318,8.803 C19.337,8.852 19.348,8.904 19.348,8.958 L19.348,9.626 C19.348,9.860 19.162,10.050 18.934,10.050 L18.693,10.050 L18.693,8.911 L18.693,8.911 ZM7.308,10.050 L7.308,10.050 L7.068,10.050 C6.839,10.050 6.654,9.860 6.654,9.626 L6.654,8.958 C6.654,8.904 6.665,8.852 6.684,8.803 C6.748,8.837 6.820,8.855 6.894,8.854 C6.897,8.855 7.080,8.853 7.308,8.911 L7.308,10.050 L7.308,10.050 ZM8.167,10.543 L8.167,9.389 C8.297,9.429 8.439,9.423 8.570,9.367 C8.796,9.271 8.941,9.047 8.941,8.798 L8.941,4.742 C8.941,4.248 9.334,3.847 9.816,3.847 L11.001,3.847 C11.212,3.847 11.419,3.922 11.582,4.059 L11.698,4.156 C12.065,4.463 12.527,4.632 13.001,4.632 C13.474,4.632 13.937,4.463 14.303,4.156 L14.420,4.059 C14.583,3.922 14.789,3.847 15.001,3.847 L16.185,3.847 C16.668,3.847 17.060,4.248 17.060,4.742 L17.060,8.798 C17.060,9.047 17.206,9.271 17.431,9.367 C17.506,9.399 17.585,9.415 17.663,9.415 C17.721,9.415 17.779,9.406 17.835,9.389 L17.835,10.543 C17.835,11.184 17.402,12.430 16.598,13.475 C16.332,13.821 15.990,14.193 15.569,14.519 C15.556,14.528 15.543,14.537 15.531,14.548 C14.879,15.041 14.040,15.419 13.001,15.419 C11.961,15.419 11.123,15.041 10.470,14.548 C10.458,14.537 10.445,14.528 10.432,14.519 C10.011,14.193 9.669,13.821 9.403,13.475 C8.600,12.430 8.167,11.184 8.167,10.543 ZM15.813,17.641 L13.001,19.792 L10.188,17.641 C10.467,17.278 10.623,16.812 10.623,16.397 L10.623,15.688 C11.285,16.052 12.074,16.298 13.001,16.298 C13.928,16.298 14.717,16.052 15.378,15.688 L15.378,16.397 C15.378,16.812 15.534,17.278 15.813,17.641 ZM9.472,17.150 C9.243,17.061 8.988,17.046 8.748,17.113 C8.737,17.116 8.727,17.118 8.717,17.121 L7.234,17.579 C7.485,16.317 8.486,15.312 9.765,15.118 L9.765,16.397 C9.765,16.672 9.645,16.957 9.472,17.150 ZM10.637,20.677 C10.636,20.675 10.635,20.673 10.635,20.671 C10.613,20.614 10.591,20.559 10.570,20.504 C10.566,20.494 10.562,20.484 10.559,20.474 C10.538,20.420 10.517,20.367 10.497,20.315 C10.495,20.311 10.494,20.307 10.492,20.303 C10.429,20.140 10.367,19.983 10.308,19.833 C10.304,19.822 10.300,19.811 10.296,19.800 C10.279,19.757 10.262,19.714 10.245,19.672 C10.239,19.657 10.233,19.641 10.227,19.627 C10.211,19.586 10.195,19.545 10.180,19.506 C10.175,19.494 10.170,19.482 10.166,19.471 C10.137,19.399 10.110,19.329 10.082,19.260 C10.075,19.242 10.068,19.223 10.060,19.205 C10.050,19.179 10.039,19.153 10.029,19.127 C10.018,19.098 10.006,19.071 9.995,19.043 C9.991,19.033 9.987,19.022 9.983,19.012 C9.980,19.004 9.976,18.996 9.973,18.988 C9.924,18.865 9.877,18.748 9.832,18.639 C9.832,18.638 9.831,18.637 9.831,18.637 C9.807,18.578 9.784,18.521 9.761,18.467 C9.750,18.439 9.738,18.412 9.727,18.385 L12.146,20.235 L11.135,20.674 C11.133,20.675 11.131,20.676 11.130,20.676 L10.708,20.860 C10.684,20.798 10.660,20.737 10.637,20.677 ZM11.661,23.367 C11.577,23.141 11.491,22.915 11.405,22.689 C11.272,22.335 11.144,21.998 11.021,21.678 L11.182,21.608 L11.836,22.387 L11.661,23.367 ZM13.009,26.937 C12.997,26.911 12.982,26.886 12.965,26.863 C12.771,26.339 12.525,25.675 12.253,24.945 L12.653,22.699 L13.348,22.699 L13.749,24.945 C13.463,25.710 13.207,26.402 13.009,26.937 ZM13.509,21.820 L12.492,21.820 L12.011,21.248 L13.001,20.818 L13.990,21.248 L13.509,21.820 ZM14.596,22.689 C14.511,22.915 14.425,23.141 14.340,23.367 L14.165,22.387 L14.820,21.608 L14.980,21.678 C14.858,21.998 14.730,22.335 14.596,22.689 ZM16.240,18.467 C16.219,18.519 16.197,18.572 16.175,18.628 C16.172,18.635 16.169,18.642 16.166,18.649 C16.144,18.703 16.121,18.759 16.097,18.817 C16.096,18.821 16.094,18.825 16.093,18.829 C16.072,18.879 16.052,18.930 16.030,18.983 C16.026,18.993 16.023,19.002 16.019,19.012 C16.014,19.024 16.009,19.036 16.004,19.048 C15.995,19.071 15.985,19.095 15.976,19.119 C15.964,19.148 15.952,19.178 15.940,19.208 C15.936,19.218 15.932,19.228 15.928,19.237 C15.899,19.312 15.868,19.390 15.837,19.469 C15.832,19.482 15.827,19.494 15.822,19.506 C15.806,19.545 15.790,19.585 15.775,19.626 C15.768,19.641 15.762,19.657 15.756,19.673 C15.740,19.715 15.723,19.757 15.706,19.799 C15.702,19.811 15.697,19.823 15.692,19.835 C15.634,19.984 15.574,20.138 15.511,20.300 C15.509,20.305 15.507,20.310 15.505,20.316 C15.484,20.368 15.464,20.421 15.443,20.474 C15.439,20.484 15.435,20.494 15.431,20.504 C15.410,20.559 15.388,20.615 15.367,20.672 C15.366,20.673 15.366,20.674 15.365,20.675 C15.342,20.736 15.318,20.797 15.294,20.860 L14.872,20.676 C14.870,20.676 14.869,20.675 14.867,20.675 L13.856,20.235 L16.275,18.385 C16.263,18.412 16.252,18.439 16.240,18.467 ZM17.284,17.121 C17.284,17.121 17.284,17.121 17.284,17.121 C17.284,17.121 17.283,17.121 17.283,17.121 C17.034,17.044 16.768,17.057 16.530,17.150 C16.357,16.957 16.237,16.672 16.237,16.397 L16.237,15.117 C17.523,15.311 18.522,16.306 18.769,17.580 L17.284,17.121 ZM20.616,23.342 C20.616,24.111 20.005,24.737 19.253,24.737 C18.502,24.737 17.891,24.111 17.891,23.342 C17.891,22.573 18.502,21.948 19.253,21.948 C20.005,21.948 20.616,22.573 20.616,23.342 Z" class="cls-1"/>
</svg>
