<svg xmlns="http://www.w3.org/2000/svg" xmlns:xlink="http://www.w3.org/1999/xlink" preserveAspectRatio="xMidYMid" width="19" height="30" viewBox="0 0 19 30">
  <defs>
    <style>
      .cls-1 {
        fill: #242424;
        fill-rule: evenodd;
      }
    </style>
  </defs>
  <path d="M16.802,30.000 L2.198,30.000 C0.986,30.000 -0.000,28.990 -0.000,27.749 L-0.000,11.360 C-0.000,10.329 0.429,9.343 1.177,8.653 L3.274,6.720 L3.274,5.367 L2.904,5.367 C2.203,5.367 1.633,4.783 1.633,4.066 L1.633,1.301 C1.633,0.583 2.203,-0.000 2.904,-0.000 L16.096,-0.000 C16.797,-0.000 17.366,0.583 17.366,1.301 L17.366,4.066 C17.366,4.783 16.797,5.367 16.096,5.367 L15.726,5.367 L15.726,6.720 L17.823,8.653 C18.571,9.343 19.000,10.329 19.000,11.360 L19.000,27.749 C19.000,28.990 18.014,30.000 16.802,30.000 ZM16.096,4.488 C16.323,4.488 16.508,4.299 16.508,4.066 L16.508,1.301 C16.508,1.068 16.323,0.879 16.096,0.879 L2.904,0.879 C2.676,0.879 2.492,1.068 2.492,1.301 L2.492,4.066 C2.492,4.299 2.676,4.488 2.904,4.488 L16.096,4.488 ZM4.132,5.367 L4.132,6.476 L14.868,6.476 L14.868,5.367 L4.132,5.367 ZM18.141,26.275 L15.552,26.275 C15.315,26.275 15.123,26.078 15.123,25.836 C15.123,25.593 15.315,25.396 15.552,25.396 L18.141,25.396 L18.141,12.412 L5.465,12.412 C5.228,12.412 5.036,12.215 5.036,11.972 C5.036,11.729 5.228,11.533 5.465,11.533 L18.141,11.533 L18.141,11.360 C18.141,10.578 17.816,9.830 17.249,9.307 L15.132,7.356 L3.868,7.356 L1.751,9.307 C1.184,9.830 0.858,10.578 0.858,11.360 L0.858,11.533 L3.448,11.533 C3.685,11.533 3.877,11.729 3.877,11.972 C3.877,12.215 3.685,12.412 3.448,12.412 L0.858,12.412 L0.858,25.396 L13.525,25.396 C13.762,25.396 13.954,25.593 13.954,25.836 C13.954,26.078 13.762,26.275 13.525,26.275 L0.858,26.275 L0.858,27.749 C0.858,28.505 1.459,29.120 2.198,29.120 L16.802,29.120 C17.541,29.120 18.141,28.505 18.141,27.749 L18.141,26.275 ZM13.768,20.629 L11.046,20.629 L11.046,23.417 C11.046,23.762 10.772,24.042 10.435,24.042 L8.564,24.042 C8.227,24.042 7.953,23.762 7.953,23.417 L7.953,20.629 L5.232,20.629 C4.895,20.629 4.621,20.349 4.621,20.004 L4.621,18.087 C4.621,17.743 4.895,17.462 5.232,17.462 L7.953,17.462 L7.953,14.674 C7.953,14.329 8.227,14.049 8.564,14.049 L10.435,14.049 C10.772,14.049 11.046,14.329 11.046,14.674 L11.046,17.462 L13.768,17.462 C14.105,17.462 14.379,17.743 14.379,18.087 L14.379,20.004 C14.379,20.349 14.105,20.629 13.768,20.629 ZM13.521,18.341 L10.617,18.341 C10.380,18.341 10.188,18.144 10.188,17.901 L10.188,14.928 L8.812,14.928 L8.812,17.901 C8.812,18.144 8.620,18.341 8.383,18.341 L5.479,18.341 L5.479,19.750 L8.383,19.750 C8.620,19.750 8.812,19.947 8.812,20.190 L8.812,23.163 L10.188,23.163 L10.188,20.190 C10.188,19.947 10.380,19.750 10.617,19.750 L13.521,19.750 L13.521,18.341 ZM4.543,1.742 C4.780,1.742 4.972,1.939 4.972,2.182 L4.972,3.185 C4.972,3.427 4.780,3.624 4.543,3.624 C4.306,3.624 4.114,3.427 4.114,3.185 L4.114,2.182 C4.114,1.939 4.306,1.742 4.543,1.742 ZM7.021,1.742 C7.258,1.742 7.451,1.939 7.451,2.182 L7.451,3.185 C7.451,3.427 7.258,3.624 7.021,3.624 C6.784,3.624 6.592,3.427 6.592,3.185 L6.592,2.182 C6.592,1.939 6.784,1.742 7.021,1.742 ZM9.500,1.742 C9.737,1.742 9.929,1.939 9.929,2.182 L9.929,3.185 C9.929,3.427 9.737,3.624 9.500,3.624 C9.263,3.624 9.071,3.427 9.071,3.185 L9.071,2.182 C9.071,1.939 9.263,1.742 9.500,1.742 ZM11.978,1.742 C12.215,1.742 12.408,1.939 12.408,2.182 L12.408,3.185 C12.408,3.427 12.215,3.624 11.978,3.624 C11.741,3.624 11.549,3.427 11.549,3.185 L11.549,2.182 C11.549,1.939 11.741,1.742 11.978,1.742 ZM14.457,1.742 C14.694,1.742 14.886,1.939 14.886,2.182 L14.886,3.185 C14.886,3.427 14.694,3.624 14.457,3.624 C14.220,3.624 14.027,3.427 14.027,3.185 L14.027,2.182 C14.027,1.939 14.220,1.742 14.457,1.742 Z" class="cls-1"/>
</svg>
