<svg xmlns="http://www.w3.org/2000/svg" xmlns:xlink="http://www.w3.org/1999/xlink" preserveAspectRatio="xMidYMid" width="23" height="30" viewBox="0 0 23 30">
  <defs>
    <style>
      .cls-1 {
        fill: #242424;
        fill-rule: evenodd;
      }
    </style>
  </defs>
  <path d="M22.568,29.999 C22.330,29.999 22.137,29.803 22.137,29.560 L22.137,24.046 C22.137,22.994 21.474,22.081 20.488,21.772 L17.253,20.759 L16.682,21.534 L17.330,22.195 C17.743,22.615 17.845,23.255 17.584,23.787 L14.653,29.757 C14.577,29.911 14.425,30.000 14.267,30.000 C14.202,30.000 14.136,29.985 14.074,29.953 C13.861,29.845 13.774,29.581 13.881,29.364 L16.812,23.393 C16.907,23.201 16.870,22.969 16.720,22.816 L15.807,21.886 C15.655,21.731 15.638,21.486 15.767,21.311 L16.744,19.984 C16.777,19.940 16.773,19.895 16.767,19.871 C16.762,19.849 16.746,19.806 16.697,19.781 L14.998,18.916 L11.914,29.683 C11.861,29.871 11.692,29.999 11.500,29.999 C11.308,29.999 11.139,29.871 11.086,29.683 L9.740,24.985 C9.674,24.752 9.805,24.508 10.034,24.440 C10.263,24.372 10.502,24.506 10.569,24.739 L11.500,27.990 L13.159,22.199 C12.628,22.387 12.067,22.484 11.500,22.484 C10.933,22.484 10.372,22.387 9.841,22.199 L10.031,22.859 C10.097,23.092 9.966,23.336 9.737,23.404 C9.508,23.472 9.269,23.338 9.202,23.105 L8.002,18.916 L6.303,19.781 C6.254,19.806 6.238,19.848 6.233,19.872 C6.227,19.895 6.223,19.940 6.256,19.984 L7.233,21.311 C7.362,21.486 7.345,21.731 7.193,21.886 L6.280,22.816 C6.130,22.969 6.093,23.201 6.188,23.393 L9.119,29.364 C9.225,29.581 9.139,29.845 8.926,29.953 C8.864,29.985 8.798,30.000 8.733,30.000 C8.575,30.000 8.423,29.911 8.347,29.757 L7.781,28.604 L7.781,29.560 C7.781,29.803 7.588,29.999 7.349,29.999 L2.737,29.999 C2.499,29.999 2.306,29.803 2.306,29.560 L2.306,26.742 C2.306,26.499 2.499,26.302 2.737,26.302 L4.612,26.302 L4.612,25.803 C4.612,25.560 4.805,25.363 5.043,25.363 C5.282,25.363 5.475,25.560 5.475,25.803 L5.475,26.302 L6.651,26.302 L5.416,23.787 C5.155,23.255 5.257,22.615 5.670,22.195 L6.318,21.534 L5.747,20.759 L2.512,21.772 C1.526,22.081 0.863,22.994 0.863,24.045 L0.863,29.560 C0.863,29.803 0.670,29.999 0.431,29.999 C0.193,29.999 -0.000,29.803 -0.000,29.560 L-0.000,24.045 C-0.000,22.606 0.908,21.355 2.259,20.932 L5.369,19.958 C5.364,19.862 5.370,19.765 5.393,19.670 C5.461,19.376 5.652,19.130 5.917,18.995 L7.840,18.016 L7.840,16.620 C6.401,15.601 5.388,13.998 5.135,12.151 L4.813,12.151 C4.366,12.151 3.937,11.958 3.638,11.620 C3.338,11.282 3.192,10.828 3.237,10.373 C3.292,9.811 3.654,9.333 4.151,9.092 L4.151,6.232 C4.151,4.878 4.557,4.190 4.772,3.920 C4.275,3.366 4.082,2.911 4.069,2.879 C4.021,2.764 4.025,2.633 4.077,2.520 C4.130,2.407 4.228,2.323 4.346,2.288 C5.468,1.953 6.260,1.588 7.026,1.234 C8.460,0.572 9.698,-0.000 12.393,-0.000 C13.659,-0.000 14.801,0.356 15.578,0.939 C15.618,0.939 15.648,0.939 15.651,0.939 C17.414,0.939 18.849,2.400 18.849,4.197 L18.849,9.072 C19.042,9.162 19.217,9.292 19.362,9.455 C19.662,9.793 19.808,10.247 19.763,10.703 C19.684,11.515 18.962,12.151 18.121,12.151 L17.865,12.151 C17.611,13.998 16.599,15.600 15.160,16.619 L15.160,18.016 L17.083,18.995 C17.348,19.130 17.539,19.376 17.607,19.670 C17.629,19.765 17.636,19.862 17.631,19.958 L20.741,20.932 C22.092,21.355 23.000,22.606 23.000,24.045 L23.000,29.560 C23.000,29.803 22.807,29.999 22.568,29.999 ZM5.475,27.181 L5.475,27.212 C5.475,27.454 5.282,27.651 5.043,27.651 C4.805,27.651 4.612,27.454 4.612,27.212 L4.612,27.181 L3.169,27.181 L3.169,29.121 L6.918,29.121 L6.918,27.181 L5.475,27.181 ZM8.703,18.225 L9.527,21.103 C10.131,21.432 10.810,21.606 11.500,21.606 C12.190,21.606 12.869,21.432 13.473,21.102 L14.297,18.225 L14.297,17.134 C13.451,17.553 12.502,17.788 11.500,17.788 C10.498,17.788 9.549,17.553 8.703,17.134 L8.703,18.225 ZM17.986,4.197 C17.986,3.165 17.337,2.284 16.433,1.956 C16.467,2.029 16.496,2.103 16.521,2.179 C16.596,2.409 16.474,2.658 16.248,2.735 C16.022,2.812 15.778,2.687 15.702,2.457 C15.408,1.557 13.985,0.879 12.393,0.879 C9.885,0.879 8.780,1.389 7.383,2.034 C6.744,2.329 6.034,2.657 5.118,2.963 C5.393,3.350 5.916,3.930 6.800,4.386 C9.287,5.667 12.664,5.018 15.059,4.247 C15.213,4.198 15.381,4.240 15.495,4.356 C15.556,4.418 17.004,5.917 17.004,7.954 L17.004,8.424 C17.004,8.700 17.225,8.924 17.495,8.924 L17.986,8.924 L17.986,4.197 ZM17.064,11.246 C17.064,11.004 17.257,10.807 17.495,10.807 L17.495,10.807 C17.734,10.807 17.927,11.004 17.927,11.246 L17.927,11.272 L18.121,11.272 C18.524,11.272 18.869,10.984 18.905,10.615 C18.926,10.403 18.861,10.201 18.722,10.045 C18.586,9.891 18.391,9.803 18.187,9.803 L17.495,9.803 C16.749,9.803 16.142,9.184 16.142,8.424 L16.142,7.954 C16.142,6.663 15.394,5.592 15.051,5.170 C13.111,5.770 11.346,6.045 9.802,5.989 C8.485,5.941 7.321,5.653 6.343,5.134 C5.981,4.942 5.672,4.733 5.408,4.521 C5.284,4.701 5.014,5.209 5.014,6.232 L5.014,8.924 L5.505,8.924 C5.775,8.924 5.995,8.700 5.995,8.424 L5.995,6.765 C5.995,6.523 6.189,6.326 6.427,6.326 C6.665,6.326 6.858,6.523 6.858,6.765 L6.858,8.424 C6.858,9.184 6.251,9.803 5.505,9.803 L4.879,9.803 C4.476,9.803 4.131,10.091 4.095,10.460 C4.074,10.672 4.139,10.875 4.278,11.030 C4.414,11.184 4.609,11.272 4.813,11.272 L5.073,11.272 L5.073,11.242 C5.073,10.999 5.266,10.803 5.505,10.803 C5.743,10.803 5.936,10.999 5.936,11.242 C5.936,14.367 8.432,16.909 11.500,16.909 C14.565,16.909 17.061,14.369 17.064,11.246 ZM9.813,13.434 C9.644,13.263 9.642,12.985 9.809,12.812 C9.976,12.640 10.250,12.637 10.419,12.808 C10.577,12.966 10.954,13.151 11.500,13.151 C12.045,13.151 12.423,12.966 12.580,12.808 C12.750,12.638 13.023,12.640 13.191,12.812 C13.358,12.985 13.356,13.263 13.187,13.434 C12.815,13.807 12.184,14.030 11.500,14.030 C10.815,14.030 10.185,13.807 9.813,13.434 ZM13.806,7.984 L14.728,7.984 C14.967,7.984 15.160,8.181 15.160,8.424 C15.160,8.667 14.967,8.864 14.728,8.864 L13.806,8.864 C13.568,8.864 13.374,8.667 13.374,8.424 C13.374,8.181 13.567,7.984 13.806,7.984 ZM14.267,9.393 C14.505,9.393 14.698,9.590 14.698,9.833 L14.698,10.303 C14.698,10.545 14.505,10.742 14.267,10.742 C14.029,10.742 13.835,10.545 13.835,10.303 L13.835,9.833 C13.835,9.590 14.029,9.393 14.267,9.393 ZM9.194,8.864 L8.272,8.864 C8.033,8.864 7.840,8.667 7.840,8.424 C7.840,8.181 8.033,7.984 8.272,7.984 L9.194,7.984 C9.432,7.984 9.625,8.181 9.625,8.424 C9.625,8.667 9.432,8.864 9.194,8.864 ZM8.733,9.393 C8.971,9.393 9.164,9.590 9.164,9.833 L9.164,10.303 C9.164,10.545 8.971,10.742 8.733,10.742 C8.495,10.742 8.301,10.545 8.301,10.303 L8.301,9.833 C8.301,9.590 8.495,9.393 8.733,9.393 ZM17.957,26.537 L18.678,26.537 L18.678,25.803 C18.678,25.560 18.871,25.363 19.110,25.363 C19.348,25.363 19.541,25.560 19.541,25.803 L19.541,26.537 L20.262,26.537 C20.501,26.537 20.694,26.734 20.694,26.977 C20.694,27.220 20.501,27.416 20.262,27.416 L19.541,27.416 L19.541,28.151 C19.541,28.394 19.348,28.590 19.110,28.590 C18.871,28.590 18.678,28.394 18.678,28.151 L18.678,27.416 L17.957,27.416 C17.718,27.416 17.525,27.220 17.525,26.977 C17.525,26.734 17.718,26.537 17.957,26.537 Z" class="cls-1"/>
</svg>
