<svg xmlns="http://www.w3.org/2000/svg" xmlns:xlink="http://www.w3.org/1999/xlink" preserveAspectRatio="xMidYMid" width="22" height="30" viewBox="0 0 22 30">
  <defs>
    <style>
      .cls-1 {
        fill: #242424;
        fill-rule: evenodd;
      }
    </style>
  </defs>
  <path d="M9.833,16.589 L11.366,16.589 C11.685,16.589 11.945,16.854 11.945,17.181 L11.945,19.379 L14.096,19.379 C14.415,19.379 14.675,19.645 14.675,19.971 L14.675,21.538 C14.675,21.865 14.415,22.130 14.096,22.130 L11.945,22.130 L11.945,24.329 C11.945,24.655 11.685,24.920 11.366,24.920 L9.833,24.920 C9.514,24.920 9.255,24.655 9.255,24.329 L9.255,22.130 L7.104,22.130 C6.784,22.130 6.525,21.865 6.525,21.538 L6.525,19.971 C6.525,19.645 6.784,19.379 7.104,19.379 L9.255,19.379 L9.255,17.181 C9.255,16.854 9.514,16.589 9.833,16.589 ZM7.385,20.259 L7.385,21.251 L9.685,21.251 C9.922,21.251 10.115,21.448 10.115,21.690 L10.115,24.041 L11.085,24.041 L11.085,21.690 C11.085,21.448 11.277,21.251 11.515,21.251 L13.815,21.251 L13.815,20.259 L11.515,20.259 C11.277,20.259 11.085,20.062 11.085,19.819 L11.085,17.468 L10.115,17.468 L10.115,19.819 C10.115,20.062 9.922,20.259 9.685,20.259 L7.385,20.259 ZM21.664,3.541 L17.516,10.423 L19.855,10.423 C20.896,10.423 21.742,11.288 21.742,12.351 C21.742,13.312 21.051,14.111 20.150,14.256 C20.222,16.394 20.040,19.672 18.901,23.796 C18.848,23.990 18.675,24.116 18.488,24.116 C18.449,24.116 18.410,24.111 18.371,24.100 C18.142,24.034 18.009,23.791 18.074,23.557 C19.184,19.536 19.361,16.350 19.290,14.279 L5.787,14.279 C5.549,14.279 5.357,14.083 5.357,13.840 C5.357,13.597 5.549,13.400 5.787,13.400 L19.855,13.400 C20.421,13.400 20.882,12.929 20.882,12.351 C20.882,11.772 20.421,11.302 19.855,11.302 L1.886,11.302 C1.320,11.302 0.860,11.772 0.860,12.351 C0.860,12.929 1.320,13.400 1.886,13.400 L3.752,13.400 C3.989,13.400 4.181,13.597 4.181,13.840 C4.181,14.083 3.989,14.279 3.752,14.279 L2.451,14.279 C2.371,16.694 2.622,21.213 4.776,26.958 L16.966,26.958 C17.148,26.471 17.322,25.981 17.483,25.496 C17.560,25.266 17.804,25.143 18.029,25.221 C18.254,25.299 18.374,25.549 18.297,25.779 C18.150,26.222 17.992,26.671 17.827,27.117 C18.231,27.340 18.507,27.778 18.507,28.280 L18.507,28.677 C18.507,29.406 17.926,30.000 17.213,30.000 L4.528,30.000 C3.815,30.000 3.235,29.406 3.235,28.677 L3.235,28.280 C3.235,27.778 3.510,27.340 3.915,27.116 C1.764,21.311 1.511,16.724 1.592,14.256 C0.691,14.111 -0.000,13.312 -0.000,12.351 C-0.000,11.288 0.846,10.423 1.886,10.423 L2.555,10.423 C1.657,7.651 1.366,4.920 1.737,2.675 C1.760,2.534 1.847,2.419 1.964,2.357 C1.966,2.356 1.968,2.355 1.970,2.354 C1.970,2.354 1.970,2.354 1.970,2.354 C2.088,2.290 2.233,2.283 2.360,2.346 C4.006,3.161 5.644,4.525 7.125,6.308 C8.261,4.414 9.622,2.833 11.064,1.785 C11.178,1.702 11.321,1.684 11.447,1.726 C11.448,1.726 11.449,1.726 11.450,1.727 C11.452,1.727 11.453,1.728 11.455,1.728 C11.581,1.769 11.686,1.868 11.732,2.004 C12.522,4.329 12.641,7.301 12.078,10.423 L12.178,10.423 L17.794,1.104 C18.451,0.013 19.854,-0.328 20.921,0.344 C21.988,1.016 22.321,2.450 21.664,3.541 ZM4.095,28.677 C4.095,28.922 4.289,29.121 4.528,29.121 L17.213,29.121 C17.452,29.121 17.647,28.922 17.647,28.677 L17.647,28.281 C17.647,28.051 17.476,27.862 17.258,27.839 C17.251,27.839 17.243,27.839 17.236,27.839 L17.209,27.837 L4.533,27.837 L4.506,27.839 C4.503,27.839 4.501,27.839 4.498,27.839 C4.273,27.855 4.095,28.047 4.095,28.281 L4.095,28.677 ZM3.462,10.423 L5.208,10.423 C5.255,10.288 5.303,10.153 5.352,10.019 L2.446,4.258 C2.383,6.133 2.731,8.264 3.462,10.423 ZM3.211,3.856 L5.780,8.948 C6.050,8.316 6.347,7.704 6.665,7.116 C5.579,5.768 4.406,4.662 3.211,3.856 ZM6.123,10.423 L8.280,10.423 L10.470,3.420 C8.711,5.101 7.151,7.602 6.123,10.423 ZM11.290,3.682 L9.183,10.423 L11.204,10.423 C11.661,7.990 11.687,5.658 11.290,3.682 ZM20.470,1.093 C19.806,0.675 18.934,0.887 18.526,1.565 L13.188,10.423 L16.506,10.423 L20.931,3.079 C21.340,2.402 21.133,1.510 20.470,1.093 Z" class="cls-1"/>
</svg>
