<svg xmlns="http://www.w3.org/2000/svg" xmlns:xlink="http://www.w3.org/1999/xlink" preserveAspectRatio="xMidYMid" width="34" height="30" viewBox="0 0 34 30">
  <defs>
    <style>
      .cls-1 {
        fill: #242424;
        fill-rule: evenodd;
      }
    </style>
  </defs>
  <path d="M32.712,12.500 L27.185,21.105 C27.082,21.266 26.906,21.354 26.728,21.354 C26.628,21.354 26.526,21.327 26.436,21.269 C26.183,21.108 26.110,20.774 26.271,20.523 L27.089,19.249 L25.621,18.314 C25.369,18.154 25.295,17.820 25.456,17.568 C25.618,17.317 25.953,17.244 26.206,17.404 L27.674,18.339 L31.798,11.918 C32.816,10.333 33.153,8.448 32.748,6.611 C32.342,4.773 31.242,3.203 29.650,2.190 C26.363,0.098 21.980,1.058 19.879,4.329 L18.745,6.094 C18.583,6.346 18.248,6.419 17.995,6.258 C17.743,6.098 17.669,5.763 17.831,5.512 L18.964,3.747 C21.388,-0.027 26.444,-1.133 30.234,1.280 C32.070,2.449 33.339,4.260 33.807,6.379 C34.275,8.498 33.887,10.672 32.712,12.500 ZM21.707,5.493 C21.603,5.654 21.428,5.742 21.249,5.742 C21.149,5.742 21.048,5.715 20.957,5.657 C20.705,5.496 20.631,5.162 20.793,4.911 C21.898,3.190 23.788,2.162 25.847,2.162 C26.989,2.162 28.101,2.486 29.065,3.100 C29.318,3.261 29.391,3.595 29.230,3.846 C29.069,4.097 28.733,4.171 28.481,4.010 C27.692,3.508 26.781,3.242 25.847,3.242 C24.160,3.242 22.612,4.084 21.707,5.493 ZM24.964,23.620 C24.495,25.739 23.227,27.550 21.390,28.719 C20.075,29.557 18.557,30.000 17.002,30.000 C17.002,30.000 17.002,30.000 17.002,30.000 C14.200,30.000 11.628,28.599 10.121,26.252 L1.287,12.500 C0.113,10.672 -0.276,8.498 0.192,6.379 C0.661,4.260 1.929,2.449 3.766,1.280 C5.081,0.442 6.599,-0.001 8.154,-0.001 C10.955,-0.001 13.528,1.401 15.035,3.747 L23.869,17.499 C25.043,19.327 25.432,21.501 24.964,23.620 ZM14.121,4.329 C12.814,2.294 10.584,1.080 8.154,1.080 C6.807,1.080 5.491,1.464 4.350,2.190 C2.758,3.203 1.658,4.773 1.252,6.611 C0.846,8.448 1.183,10.333 2.202,11.918 L6.326,18.339 L18.246,10.750 L14.121,4.329 ZM18.830,11.660 L6.910,19.249 L11.035,25.670 C12.342,27.705 14.572,28.919 17.002,28.919 C18.349,28.919 19.665,28.536 20.806,27.809 C22.398,26.796 23.498,25.225 23.904,23.388 C24.310,21.551 23.972,19.666 22.954,18.081 L18.830,11.660 ZM22.315,23.580 C22.276,23.580 22.237,23.576 22.198,23.568 C21.905,23.504 21.720,23.215 21.784,22.924 C22.066,21.650 21.832,20.344 21.126,19.245 C20.965,18.994 21.039,18.660 21.291,18.499 C21.543,18.338 21.879,18.412 22.040,18.663 C22.902,20.005 23.188,21.601 22.844,23.156 C22.788,23.408 22.564,23.580 22.315,23.580 ZM17.002,27.839 C14.945,27.839 13.055,26.811 11.949,25.088 L8.701,20.032 C8.540,19.781 8.614,19.447 8.866,19.286 C9.119,19.125 9.454,19.199 9.615,19.450 L12.863,24.506 C13.769,25.917 15.316,26.759 17.002,26.759 C17.302,26.759 17.545,27.001 17.545,27.299 C17.545,27.597 17.302,27.839 17.002,27.839 ZM2.312,6.843 C2.655,5.287 3.587,3.958 4.935,3.100 C5.187,2.939 5.522,3.013 5.684,3.264 C5.845,3.515 5.772,3.849 5.519,4.010 C4.416,4.713 3.653,5.801 3.372,7.075 C3.090,8.349 3.324,9.655 4.030,10.754 L7.277,15.810 C7.439,16.061 7.365,16.395 7.113,16.556 C7.022,16.614 6.921,16.641 6.821,16.641 C6.642,16.641 6.467,16.553 6.363,16.392 L3.116,11.336 C2.254,9.994 1.968,8.398 2.312,6.843 Z" class="cls-1"/>
</svg>
