<svg xmlns="http://www.w3.org/2000/svg" xmlns:xlink="http://www.w3.org/1999/xlink" preserveAspectRatio="xMidYMid" width="30" height="30" viewBox="0 0 30 30">
  <defs>
    <style>
      .cls-1 {
        fill: #242424;
        fill-rule: evenodd;
      }
    </style>
  </defs>
  <path d="M29.600,25.369 C29.068,25.901 28.180,25.900 27.648,25.369 L22.951,20.672 C22.537,20.258 22.429,19.608 22.690,19.083 L20.853,17.246 C19.787,18.169 18.398,18.728 16.881,18.728 C13.530,18.728 10.804,16.002 10.804,12.651 C10.804,9.301 13.530,6.575 16.881,6.575 C20.232,6.575 22.958,9.301 22.958,12.651 C22.958,14.169 22.399,15.557 21.476,16.623 L23.313,18.460 C23.839,18.199 24.488,18.307 24.902,18.721 L29.600,23.417 C30.132,23.949 30.132,24.837 29.600,25.369 ZM22.077,12.651 C22.077,9.787 19.746,7.456 16.881,7.456 C14.016,7.456 11.684,9.787 11.684,12.651 C11.684,15.516 14.016,17.847 16.881,17.847 C19.746,17.847 22.077,15.516 22.077,12.651 ZM28.977,24.040 L24.280,19.344 C24.088,19.152 23.766,19.151 23.574,19.344 C23.382,19.536 23.381,19.857 23.574,20.049 L28.271,24.746 C28.464,24.938 28.785,24.938 28.977,24.746 C29.170,24.553 29.168,24.234 28.977,24.040 ZM16.881,16.849 C14.566,16.849 12.683,14.966 12.683,12.651 C12.683,10.337 14.566,8.454 16.881,8.454 C19.196,8.454 21.079,10.337 21.079,12.651 C21.079,14.966 19.196,16.849 16.881,16.849 ZM16.881,9.334 C15.052,9.334 13.563,10.822 13.563,12.651 C13.563,14.480 15.052,15.968 16.881,15.968 C18.710,15.968 20.198,14.481 20.198,12.651 C20.198,10.822 18.710,9.334 16.881,9.334 ZM23.290,10.575 C23.058,10.500 22.931,10.251 23.006,10.020 C23.329,9.022 23.486,7.885 23.486,6.546 C23.486,3.263 20.708,0.880 16.881,0.880 C15.277,0.880 13.694,1.679 12.537,3.070 C12.523,3.087 12.507,3.102 12.490,3.117 C12.421,3.215 12.354,3.312 12.288,3.406 C11.478,4.571 10.778,5.577 8.426,5.577 C8.182,5.577 7.985,5.380 7.985,5.137 C7.985,4.894 8.182,4.696 8.426,4.696 C10.318,4.696 10.814,3.983 11.565,2.903 C11.586,2.872 11.608,2.840 11.630,2.809 C10.506,1.596 8.980,0.880 7.486,0.880 C3.659,0.880 0.880,3.263 0.880,6.546 C0.880,10.423 2.205,11.925 3.268,13.132 C4.205,14.196 5.014,15.114 4.129,17.060 C3.758,17.878 3.492,18.798 3.340,19.796 C3.307,20.014 3.119,20.170 2.905,20.170 C2.883,20.170 2.861,20.169 2.838,20.165 C2.598,20.129 2.433,19.904 2.469,19.664 C2.634,18.585 2.922,17.587 3.327,16.696 C3.977,15.268 3.519,14.749 2.608,13.715 C1.507,12.466 -0.000,10.755 -0.000,6.546 C-0.000,4.757 0.743,3.107 2.092,1.900 C3.463,0.675 5.378,-0.000 7.486,-0.000 C9.188,-0.000 10.916,0.787 12.198,2.127 C13.487,0.769 15.169,-0.000 16.881,-0.000 C18.989,-0.000 20.904,0.675 22.275,1.900 C23.624,3.107 24.367,4.757 24.367,6.546 C24.367,7.979 24.196,9.204 23.844,10.291 C23.769,10.522 23.521,10.650 23.290,10.575 ZM2.749,21.330 C2.749,21.330 2.750,21.330 2.751,21.330 C2.994,21.332 3.190,21.530 3.189,21.773 C3.171,24.956 4.160,27.864 5.127,28.836 C5.309,29.019 5.479,29.119 5.607,29.119 C5.609,29.119 5.789,29.111 6.063,28.435 C6.292,27.869 6.505,27.040 6.729,26.163 C7.527,23.050 8.618,18.786 12.184,18.786 C15.749,18.786 16.841,23.050 17.638,26.163 C17.863,27.040 18.075,27.869 18.304,28.435 C18.578,29.111 18.758,29.119 18.760,29.119 C18.932,29.119 19.181,28.934 19.425,28.625 C20.599,27.141 21.781,22.809 20.846,18.861 C20.790,18.624 20.936,18.387 21.173,18.331 C21.410,18.275 21.647,18.421 21.703,18.658 C22.139,20.500 22.174,22.666 21.801,24.756 C21.471,26.604 20.841,28.255 20.116,29.171 C19.682,29.721 19.225,30.000 18.760,30.000 C17.711,30.000 17.323,28.482 16.785,26.382 C16.398,24.873 15.960,23.162 15.229,21.827 C14.434,20.373 13.438,19.667 12.184,19.667 C10.929,19.667 9.933,20.373 9.138,21.827 C8.407,23.162 7.969,24.873 7.582,26.382 C7.045,28.482 6.656,30.000 5.607,30.000 C5.232,30.000 4.861,29.817 4.503,29.457 C3.234,28.181 2.290,24.875 2.308,21.768 C2.310,21.526 2.507,21.330 2.749,21.330 Z" class="cls-1"/>
</svg>
