<svg xmlns="http://www.w3.org/2000/svg" xmlns:xlink="http://www.w3.org/1999/xlink" preserveAspectRatio="xMidYMid" width="19" height="30" viewBox="0 0 19 30">
  <defs>
    <style>
      .cls-1 {
        fill: #242424;
        fill-rule: evenodd;
      }
    </style>
  </defs>
  <path d="M17.725,25.342 L15.857,25.342 L16.019,26.425 L18.216,26.425 C18.451,26.425 18.641,26.622 18.641,26.865 L18.641,29.560 C18.641,29.803 18.451,30.000 18.216,30.000 L0.425,30.000 C0.190,30.000 -0.000,29.803 -0.000,29.560 L-0.000,26.865 C-0.000,26.622 0.190,26.425 0.425,26.425 L9.622,26.425 L9.917,24.463 L9.271,24.463 C7.351,24.463 5.787,22.865 5.752,20.888 L2.521,20.888 C2.287,20.888 2.096,20.692 2.096,20.449 L2.096,18.574 C2.096,18.331 2.287,18.135 2.521,18.135 L9.830,18.135 C10.065,18.135 10.255,18.331 10.255,18.574 L10.255,20.449 C10.255,20.692 10.065,20.888 9.830,20.888 L6.602,20.888 C6.636,22.380 7.820,23.584 9.271,23.584 L10.048,23.584 C10.254,22.181 11.444,21.123 12.821,21.123 C13.890,21.123 14.846,21.761 15.317,22.705 L16.450,22.705 L16.450,15.813 C16.450,14.322 15.916,12.892 14.945,11.786 C13.981,10.687 12.670,9.998 11.253,9.846 C11.020,9.821 10.850,9.605 10.874,9.364 C10.898,9.123 11.107,8.947 11.341,8.972 C12.966,9.146 14.469,9.936 15.574,11.195 C16.687,12.463 17.300,14.103 17.300,15.813 L17.300,23.144 C17.300,23.387 17.110,23.584 16.875,23.584 L15.593,23.584 C15.593,23.588 15.594,23.592 15.595,23.596 L15.725,24.463 L17.725,24.463 C17.959,24.463 18.150,24.265 18.150,24.023 L18.150,15.813 C18.150,14.452 17.803,13.112 17.146,11.939 C17.028,11.729 17.098,11.460 17.301,11.339 C17.504,11.217 17.764,11.289 17.882,11.499 C18.613,12.806 19.000,14.298 19.000,15.813 L19.000,24.023 C19.000,24.750 18.428,25.342 17.725,25.342 ZM9.406,20.009 L9.406,19.013 L2.946,19.013 L2.946,20.009 L9.406,20.009 ZM14.755,23.728 C14.614,22.743 13.783,22.002 12.821,22.002 C11.859,22.002 11.027,22.743 10.887,23.725 L10.482,26.425 L15.159,26.425 L14.755,23.728 ZM15.655,27.304 L9.986,27.304 L0.850,27.304 L0.850,29.121 L17.791,29.121 L17.791,27.304 L15.655,27.304 ZM12.821,22.705 C13.524,22.705 14.096,23.296 14.096,24.023 C14.096,24.750 13.524,25.342 12.821,25.342 C12.118,25.342 11.546,24.750 11.546,24.023 C11.546,23.296 12.118,22.705 12.821,22.705 ZM12.821,24.463 C13.055,24.463 13.246,24.265 13.246,24.023 C13.246,23.781 13.055,23.584 12.821,23.584 C12.586,23.584 12.396,23.781 12.396,24.023 C12.396,24.265 12.586,24.463 12.821,24.463 ZM16.779,10.604 C16.697,10.682 16.594,10.720 16.492,10.720 C16.377,10.720 16.262,10.672 16.178,10.577 C14.759,8.975 12.743,8.056 10.650,8.056 L9.977,8.056 L9.977,13.227 C9.977,13.469 9.787,13.666 9.552,13.666 L9.094,13.666 L9.094,15.058 C9.094,15.301 8.904,15.498 8.669,15.498 L7.174,15.498 C6.940,15.498 6.749,15.301 6.749,15.058 L6.749,13.666 L5.602,13.666 L5.602,15.058 C5.602,15.301 5.412,15.498 5.178,15.498 L3.683,15.498 C3.448,15.498 3.258,15.301 3.258,15.058 L3.258,13.666 L2.800,13.666 C2.565,13.666 2.375,13.469 2.375,13.227 L2.375,5.254 C2.375,5.011 2.565,4.814 2.800,4.814 L3.864,4.814 L3.864,0.879 L2.800,0.879 C2.565,0.879 2.375,0.682 2.375,0.439 C2.375,0.196 2.565,-0.000 2.800,-0.000 L4.289,-0.000 L8.063,-0.000 L9.552,-0.000 C9.787,-0.000 9.977,0.196 9.977,0.439 C9.977,0.682 9.787,0.879 9.552,0.879 L8.488,0.879 L8.488,4.814 L9.552,4.814 C9.787,4.814 9.977,5.011 9.977,5.254 L9.977,7.177 L10.650,7.177 C12.981,7.177 15.225,8.200 16.805,9.983 C16.964,10.162 16.952,10.440 16.779,10.604 ZM7.599,14.619 L8.244,14.619 L8.244,13.666 L7.599,13.666 L7.599,14.619 ZM4.108,14.619 L4.753,14.619 L4.753,13.666 L4.108,13.666 L4.108,14.619 ZM7.638,0.879 L4.714,0.879 L4.714,4.814 L7.638,4.814 L7.638,0.879 ZM9.127,5.693 L8.063,5.693 L4.289,5.693 L3.225,5.693 L3.225,12.787 L3.683,12.787 L5.178,12.787 L7.174,12.787 L8.669,12.787 L9.127,12.787 L9.127,5.693 ZM6.176,9.562 C5.473,9.562 4.901,8.971 4.901,8.244 C4.901,7.517 5.473,6.926 6.176,6.926 C6.879,6.926 7.451,7.517 7.451,8.244 C7.451,8.971 6.879,9.562 6.176,9.562 ZM6.176,7.805 C5.941,7.805 5.751,8.002 5.751,8.244 C5.751,8.486 5.941,8.684 6.176,8.684 C6.410,8.684 6.601,8.486 6.601,8.244 C6.601,8.002 6.410,7.805 6.176,7.805 Z" class="cls-1"/>
</svg>
