<svg xmlns="http://www.w3.org/2000/svg" xmlns:xlink="http://www.w3.org/1999/xlink" preserveAspectRatio="xMidYMid" width="24" height="30" viewBox="0 0 24 30">
  <defs>
    <style>
      .cls-1 {
        fill: #242424;
        fill-rule: evenodd;
      }
    </style>
  </defs>
  <path d="M8.619,23.474 C8.619,23.232 8.821,23.035 9.069,23.035 C9.318,23.035 9.519,23.232 9.519,23.474 C9.519,25.271 10.993,26.732 12.804,26.732 C13.053,26.732 13.254,26.929 13.254,27.171 C13.254,27.414 13.053,27.611 12.804,27.611 C10.497,27.611 8.619,25.755 8.619,23.474 ZM19.235,8.841 L17.302,8.841 L15.710,10.417 C15.680,10.447 15.646,10.472 15.610,10.492 L15.610,11.398 C17.625,11.601 19.297,13.153 19.588,15.166 C19.622,15.406 19.451,15.628 19.205,15.662 C18.960,15.696 18.731,15.529 18.696,15.289 C18.446,13.559 16.926,12.254 15.160,12.254 C13.190,12.254 11.588,13.843 11.588,15.796 L11.588,17.748 C11.588,17.942 11.457,18.113 11.267,18.169 C8.884,18.863 7.221,21.068 7.221,23.531 C7.221,26.613 9.751,29.121 12.862,29.121 L17.459,29.121 C20.569,29.121 23.100,26.613 23.100,23.531 C23.100,21.068 21.436,18.863 19.054,18.169 C18.863,18.113 18.733,17.942 18.733,17.748 L18.733,16.933 C18.733,16.691 18.934,16.494 19.183,16.494 C19.431,16.494 19.633,16.691 19.633,16.933 L19.633,17.429 C20.831,17.848 21.901,18.619 22.673,19.626 C23.541,20.757 24.000,22.107 24.000,23.531 C24.000,27.098 21.066,30.000 17.459,30.000 L12.862,30.000 C9.255,30.000 6.321,27.098 6.321,23.531 C6.321,22.107 6.780,20.757 7.648,19.626 C8.420,18.619 9.490,17.848 10.688,17.429 L10.688,15.796 C10.688,13.508 12.455,11.621 14.710,11.397 L14.710,5.773 L13.390,4.767 C13.194,4.618 13.159,4.342 13.311,4.150 C13.464,3.959 13.747,3.925 13.943,4.074 L15.437,5.212 C15.546,5.295 15.610,5.423 15.610,5.558 L15.610,9.265 L16.664,8.222 L16.664,6.247 C16.664,3.743 18.750,1.706 21.314,1.706 L23.435,1.706 C23.684,1.706 23.885,1.903 23.885,2.145 L23.885,4.300 C23.885,6.804 21.799,8.841 19.235,8.841 ZM22.985,2.585 L21.314,2.585 C19.246,2.585 17.564,4.228 17.564,6.247 L17.564,7.331 L20.816,4.112 C20.991,3.939 21.276,3.937 21.452,4.108 C21.629,4.278 21.631,4.556 21.457,4.729 L18.190,7.963 L19.235,7.963 C21.303,7.963 22.985,6.320 22.985,4.300 L22.985,2.585 ZM2.011,16.422 L2.011,16.365 C2.011,16.122 2.213,15.925 2.461,15.925 C2.710,15.925 2.911,16.122 2.911,16.365 L2.911,16.422 C2.911,16.665 2.710,16.861 2.461,16.861 C2.213,16.861 2.011,16.665 2.011,16.422 ZM2.911,22.621 C2.911,22.864 2.710,23.061 2.461,23.061 C2.213,23.061 2.011,22.864 2.011,22.621 L2.011,22.564 C2.011,22.322 2.213,22.125 2.461,22.125 C2.710,22.125 2.911,22.322 2.911,22.564 L2.911,22.621 ZM3.735,17.559 L3.735,17.503 C3.735,17.260 3.936,17.063 4.185,17.063 C4.434,17.063 4.635,17.260 4.635,17.503 L4.635,17.559 C4.635,17.802 4.434,17.999 4.185,17.999 C3.936,17.999 3.735,17.802 3.735,17.559 ZM10.084,11.685 C10.053,11.685 10.027,11.713 10.027,11.748 L10.027,11.940 C10.027,11.971 10.046,11.996 10.073,12.002 C10.291,12.047 10.503,12.118 10.703,12.213 C10.926,12.320 11.019,12.583 10.910,12.801 C10.801,13.019 10.532,13.109 10.309,13.003 C10.175,12.939 10.033,12.892 9.888,12.862 C9.447,12.771 9.127,12.383 9.127,11.940 L9.127,11.748 C9.127,11.727 9.128,11.706 9.129,11.685 L4.702,11.685 C4.453,11.685 4.252,11.488 4.252,11.246 C4.252,11.003 4.453,10.806 4.702,10.806 L10.084,10.806 C10.086,10.806 10.088,10.806 10.090,10.806 C10.473,10.803 10.784,10.491 10.784,10.108 L10.784,7.264 C10.784,6.252 9.954,5.429 8.935,5.429 L6.986,5.429 C6.738,5.429 6.536,5.232 6.536,4.989 C6.536,4.747 6.738,4.550 6.986,4.550 L7.403,4.550 L7.403,3.723 L4.855,3.723 L4.855,4.550 L5.578,4.550 C5.827,4.550 6.028,4.747 6.028,4.989 C6.028,5.232 5.827,5.429 5.578,5.429 L3.323,5.429 C2.304,5.429 1.474,6.253 1.474,7.264 L1.474,10.108 C1.474,10.493 1.788,10.806 2.174,10.806 C2.702,10.806 3.131,11.229 3.131,11.748 L3.131,11.940 C3.131,12.383 2.811,12.771 2.371,12.862 C1.835,12.972 1.391,13.312 1.136,13.764 L2.992,13.764 C3.418,13.764 3.843,13.863 4.224,14.051 L7.850,15.846 C8.105,15.972 8.390,16.039 8.674,16.039 L9.356,16.039 C9.605,16.039 9.806,16.236 9.806,16.478 C9.806,16.721 9.605,16.918 9.356,16.918 L8.674,16.918 C8.249,16.918 7.823,16.819 7.443,16.630 L3.817,14.835 C3.562,14.710 3.277,14.643 2.992,14.643 L0.900,14.643 C0.900,14.648 0.900,14.653 0.900,14.658 L0.900,27.285 C0.900,28.297 1.729,29.121 2.748,29.121 L8.207,29.121 C8.456,29.121 8.657,29.318 8.657,29.560 C8.657,29.803 8.456,30.000 8.207,30.000 L2.748,30.000 C1.233,30.000 -0.000,28.782 -0.000,27.285 L-0.000,14.658 C-0.000,14.481 0.018,14.306 0.052,14.137 C0.054,14.122 0.057,14.108 0.060,14.094 C0.285,13.063 1.110,12.223 2.185,12.002 C2.212,11.996 2.231,11.971 2.231,11.940 L2.231,11.748 C2.231,11.713 2.205,11.685 2.174,11.685 C1.292,11.685 0.574,10.978 0.574,10.108 L0.574,7.264 C0.574,5.768 1.807,4.550 3.323,4.550 L3.955,4.550 L3.955,3.575 C3.651,3.395 3.448,3.069 3.448,2.697 L3.448,1.025 C3.448,0.460 3.919,-0.000 4.498,-0.000 L7.761,-0.000 C8.340,-0.000 8.811,0.460 8.811,1.025 L8.811,2.697 C8.811,3.069 8.607,3.395 8.303,3.575 L8.303,4.550 L8.935,4.550 C10.451,4.550 11.684,5.768 11.684,7.264 L11.684,10.108 C11.684,10.978 10.966,11.685 10.084,11.685 ZM7.911,1.025 C7.911,0.944 7.843,0.879 7.761,0.879 L4.498,0.879 C4.415,0.879 4.348,0.944 4.348,1.025 L4.348,2.697 C4.348,2.778 4.415,2.843 4.498,2.843 L7.761,2.843 C7.843,2.843 7.911,2.778 7.911,2.697 L7.911,1.025 Z" class="cls-1"/>
</svg>
