<svg xmlns="http://www.w3.org/2000/svg" xmlns:xlink="http://www.w3.org/1999/xlink" preserveAspectRatio="xMidYMid" width="35" height="50" viewBox="0 0 35 50">
  <defs>
    <style>
      .cls-1 {
        fill: #54a6d6;
        fill-rule: evenodd;
      }
    </style>
  </defs>
  <path d="M33.333,50.000 L33.333,37.489 C33.333,34.265 30.722,31.651 27.500,31.651 L27.500,38.398 C29.904,38.805 31.664,40.888 31.667,43.328 L31.667,44.996 C31.667,45.456 31.293,45.830 30.833,45.830 L28.333,45.830 L28.333,44.162 L30.000,44.162 L30.000,43.328 C30.000,41.485 28.508,39.991 26.667,39.991 C24.826,39.991 23.333,41.485 23.333,43.328 L23.333,44.162 L25.000,44.162 L25.000,45.830 L22.500,45.830 C22.040,45.830 21.667,45.456 21.667,44.996 L21.667,43.328 C21.669,40.888 23.429,38.805 25.833,38.398 L25.833,31.651 L25.417,31.651 L18.167,41.326 C18.119,41.389 18.063,41.445 18.000,41.493 C17.632,41.769 17.109,41.694 16.833,41.326 L9.583,31.651 L9.167,31.651 L9.167,39.274 C10.341,39.577 11.258,40.495 11.561,41.670 C12.021,43.454 10.949,45.274 9.167,45.735 C7.384,46.195 5.566,45.122 5.106,43.338 C4.646,41.554 5.717,39.735 7.500,39.274 L7.500,31.651 C4.278,31.651 1.667,34.265 1.667,37.489 L1.667,50.000 L-0.000,50.000 L-0.000,37.489 C-0.000,33.344 3.358,29.983 7.500,29.983 L12.500,29.983 L12.500,26.964 C9.409,25.178 7.504,21.878 7.500,18.306 C6.109,18.236 4.908,17.307 4.489,15.977 C3.936,14.220 4.911,12.346 6.667,11.793 L6.667,7.506 C6.667,3.360 10.025,-0.001 14.167,-0.001 L20.933,-0.001 C22.595,-0.007 24.102,0.977 24.767,2.501 C26.815,2.800 28.334,4.558 28.333,6.630 L28.333,11.751 C29.771,12.142 30.775,13.440 30.793,14.931 C30.815,16.773 29.341,18.284 27.500,18.306 C27.496,21.878 25.591,25.178 22.500,26.964 L22.500,29.983 L27.500,29.983 C31.642,29.983 35.000,33.344 35.000,37.489 L35.000,50.000 L33.333,50.000 ZM6.667,42.493 C6.667,43.415 7.413,44.162 8.333,44.162 C9.254,44.162 10.000,43.415 10.000,42.493 C10.000,41.572 9.254,40.825 8.333,40.825 C7.413,40.825 6.667,41.572 6.667,42.493 ZM7.500,13.302 C6.579,13.302 5.833,14.049 5.833,14.970 C5.833,15.892 6.579,16.638 7.500,16.638 L7.500,13.302 ZM17.500,39.433 L18.092,38.649 L17.600,34.987 L17.400,34.987 L16.908,38.649 L17.500,39.433 ZM17.183,33.319 L17.817,33.319 L18.650,31.651 L16.350,31.651 L17.183,33.319 ZM20.833,29.983 L20.833,27.731 C18.679,28.509 16.321,28.509 14.167,27.731 L14.167,29.983 L20.833,29.983 ZM11.667,31.651 L15.508,36.739 L15.833,34.295 L14.483,31.651 L11.667,31.651 ZM27.500,16.638 C28.420,16.638 29.167,15.892 29.167,14.970 C29.167,14.049 28.420,13.302 27.500,13.302 L27.500,16.638 ZM26.667,11.634 L26.667,6.630 C26.667,5.248 25.547,4.128 24.167,4.128 C23.821,4.115 23.519,3.889 23.408,3.561 L23.333,3.335 C22.989,2.304 22.019,1.613 20.933,1.626 L14.167,1.626 C10.945,1.626 8.333,4.240 8.333,7.464 L8.333,11.684 L10.117,8.707 C10.267,8.453 10.539,8.298 10.833,8.298 C14.519,8.288 18.138,7.316 21.333,5.479 L22.100,5.037 C22.338,4.915 22.620,4.915 22.858,5.037 C23.102,5.146 23.279,5.367 23.333,5.629 C23.772,7.846 24.770,9.913 26.233,11.634 L26.667,11.634 ZM25.833,18.306 L25.833,13.652 L25.750,13.569 C23.943,11.772 22.633,9.536 21.950,7.080 C18.692,8.899 15.038,9.890 11.308,9.966 L9.167,13.536 L9.167,18.306 C9.167,22.913 12.898,26.647 17.500,26.647 C22.102,26.647 25.833,22.913 25.833,18.306 ZM20.517,31.651 L19.167,34.295 L19.517,36.739 L23.333,31.651 L20.517,31.651 ZM15.833,23.311 L15.833,21.643 L16.808,21.643 C18.097,21.645 19.333,21.132 20.242,20.216 L21.425,21.401 C20.203,22.629 18.540,23.317 16.808,23.311 L15.833,23.311 ZM20.833,14.970 C20.833,14.049 21.579,13.302 22.500,13.302 C23.420,13.302 24.167,14.049 24.167,14.970 C24.167,15.892 23.420,16.638 22.500,16.638 C21.579,16.638 20.833,15.892 20.833,14.970 ZM15.133,19.641 C14.979,19.433 14.929,19.165 15.000,18.915 L16.667,13.077 L18.333,13.527 L16.942,18.306 L18.333,18.306 L18.333,19.974 L15.800,19.974 C15.538,19.974 15.291,19.851 15.133,19.641 ZM12.500,16.638 C11.580,16.638 10.833,15.892 10.833,14.970 C10.833,14.049 11.580,13.302 12.500,13.302 C13.420,13.302 14.167,14.049 14.167,14.970 C14.167,15.892 13.420,16.638 12.500,16.638 Z" class="cls-1"/>
</svg>
