<svg xmlns="http://www.w3.org/2000/svg" xmlns:xlink="http://www.w3.org/1999/xlink" preserveAspectRatio="xMidYMid" width="110" height="30" viewBox="0 0 110 30">
  <defs>
    <style>
      .cls-1, .cls-2 {
        fill: #fff;
      }

      .cls-1, .cls-3 {
        fill-rule: evenodd;
      }

      .cls-3 {
        fill: #496e9a;
      }
    </style>
  </defs>
  <g>
    <path d="M107.519,21.731 C107.313,21.550 107.025,21.460 106.654,21.460 C106.296,21.460 106.018,21.536 105.819,21.687 C105.621,21.838 105.521,22.038 105.521,22.285 C105.521,22.516 105.638,22.710 105.871,22.866 C106.103,23.022 106.446,23.169 106.898,23.306 C107.732,23.556 108.339,23.867 108.720,24.238 C109.101,24.609 109.291,25.072 109.291,25.625 C109.291,26.240 109.058,26.723 108.593,27.073 C108.127,27.423 107.501,27.598 106.713,27.598 C106.166,27.598 105.668,27.498 105.219,27.297 C104.770,27.097 104.427,26.823 104.191,26.475 C103.955,26.126 103.837,25.723 103.837,25.264 L105.307,25.264 C105.307,26.048 105.775,26.440 106.713,26.440 C107.061,26.440 107.333,26.370 107.528,26.228 C107.724,26.086 107.821,25.889 107.821,25.635 C107.821,25.358 107.724,25.146 107.528,24.998 C107.333,24.849 106.981,24.693 106.474,24.529 C105.966,24.364 105.564,24.202 105.268,24.043 C104.460,23.607 104.057,23.019 104.057,22.280 C104.057,21.896 104.165,21.554 104.381,21.252 C104.598,20.951 104.909,20.716 105.314,20.547 C105.719,20.378 106.174,20.293 106.679,20.293 C107.187,20.293 107.639,20.385 108.036,20.569 C108.433,20.753 108.742,21.012 108.961,21.348 C109.181,21.683 109.291,22.064 109.291,22.490 L107.826,22.490 C107.826,22.165 107.724,21.912 107.519,21.731 ZM103.418,25.410 C103.418,26.094 103.200,26.611 102.764,26.963 C102.327,27.314 101.706,27.494 100.898,27.500 L98.135,27.500 L98.135,20.391 L100.625,20.391 C101.488,20.391 102.142,20.556 102.588,20.886 C103.034,21.217 103.257,21.701 103.257,22.339 C103.257,22.687 103.167,22.994 102.988,23.259 C102.809,23.525 102.560,23.719 102.241,23.843 C102.606,23.934 102.893,24.118 103.103,24.395 C103.313,24.671 103.418,25.010 103.418,25.410 ZM101.511,21.790 C101.324,21.648 101.029,21.577 100.625,21.577 L99.600,21.577 L99.600,23.369 L100.684,23.369 C101.422,23.356 101.792,23.062 101.792,22.485 C101.792,22.163 101.698,21.931 101.511,21.790 ZM100.942,24.404 L99.600,24.404 L99.600,26.323 L100.854,26.323 C101.199,26.323 101.469,26.241 101.663,26.077 C101.856,25.912 101.953,25.685 101.953,25.396 C101.953,24.744 101.616,24.414 100.942,24.404 ZM95.542,27.168 C95.081,27.454 94.553,27.598 93.957,27.598 C93.368,27.598 92.842,27.456 92.380,27.173 C91.918,26.890 91.560,26.485 91.306,25.959 C91.052,25.434 90.923,24.829 90.920,24.146 L90.920,23.794 C90.920,23.094 91.046,22.478 91.298,21.946 C91.551,21.414 91.907,21.005 92.368,20.720 C92.828,20.435 93.355,20.293 93.947,20.293 C94.540,20.293 95.066,20.435 95.527,20.720 C95.987,21.005 96.344,21.414 96.596,21.946 C96.848,22.478 96.975,23.092 96.975,23.789 L96.975,24.106 C96.975,24.806 96.851,25.420 96.604,25.947 C96.356,26.475 96.002,26.882 95.542,27.168 ZM95.490,23.784 C95.490,23.039 95.357,22.472 95.090,22.085 C94.823,21.698 94.442,21.504 93.947,21.504 C93.456,21.504 93.076,21.695 92.810,22.078 C92.543,22.460 92.407,23.021 92.404,23.760 L92.404,24.106 C92.404,24.832 92.538,25.396 92.805,25.796 C93.072,26.196 93.456,26.396 93.957,26.396 C94.449,26.396 94.826,26.204 95.090,25.818 C95.354,25.432 95.487,24.870 95.490,24.131 L95.490,23.784 ZM88.318,27.314 C87.954,27.503 87.542,27.598 87.083,27.598 C86.331,27.598 85.745,27.406 85.325,27.024 C84.905,26.641 84.695,26.100 84.695,25.400 L86.170,25.400 C86.170,25.749 86.243,26.006 86.390,26.172 C86.536,26.338 86.767,26.421 87.083,26.421 C87.363,26.421 87.586,26.325 87.752,26.133 C87.918,25.941 88.001,25.667 88.001,25.313 L88.001,20.391 L89.466,20.391 L89.466,25.313 C89.466,25.765 89.366,26.165 89.166,26.511 C88.965,26.858 88.683,27.126 88.318,27.314 ZM78.135,20.391 L79.600,20.391 L79.600,26.323 L82.710,26.323 L82.710,27.500 L78.135,27.500 L78.135,20.391 ZM75.148,26.035 L72.580,26.035 L72.092,27.500 L70.534,27.500 L73.181,20.391 L74.538,20.391 L77.199,27.500 L75.642,27.500 L75.148,26.035 ZM73.859,22.187 L72.976,24.849 L74.753,24.849 L73.859,22.187 ZM67.877,21.804 C67.658,21.598 67.323,21.494 66.874,21.494 C66.386,21.494 66.020,21.669 65.778,22.019 C65.535,22.369 65.411,22.912 65.404,23.647 L65.404,24.185 C65.404,24.953 65.521,25.514 65.753,25.869 C65.986,26.224 66.353,26.401 66.854,26.401 C67.307,26.401 67.645,26.298 67.868,26.091 C68.091,25.885 68.218,25.565 68.251,25.132 L69.716,25.132 C69.660,25.897 69.378,26.499 68.869,26.938 C68.359,27.378 67.688,27.598 66.854,27.598 C65.943,27.598 65.226,27.291 64.704,26.677 C64.181,26.064 63.920,25.221 63.920,24.150 L63.920,23.716 C63.920,23.032 64.040,22.430 64.281,21.909 C64.522,21.388 64.866,20.989 65.314,20.710 C65.762,20.432 66.282,20.293 66.874,20.293 C67.694,20.293 68.355,20.513 68.856,20.952 C69.358,21.392 69.647,22.009 69.726,22.803 L68.261,22.803 C68.225,22.344 68.097,22.011 67.877,21.804 ZM61.228,20.391 L62.692,20.391 L62.692,27.500 L61.228,27.500 L61.228,20.391 ZM59.012,27.070 C58.517,27.354 57.959,27.497 57.337,27.500 L55.135,27.500 L55.135,20.391 L57.322,20.391 C57.947,20.391 58.506,20.531 59.000,20.813 C59.493,21.095 59.878,21.495 60.154,22.014 C60.431,22.533 60.569,23.123 60.569,23.784 L60.569,24.111 C60.569,24.772 60.433,25.360 60.162,25.874 C59.890,26.388 59.506,26.787 59.012,27.070 ZM59.085,23.779 C59.085,23.057 58.935,22.509 58.636,22.136 C58.336,21.764 57.898,21.577 57.322,21.577 L56.600,21.577 L56.600,26.323 L57.308,26.323 C57.881,26.323 58.318,26.136 58.621,25.762 C58.924,25.387 59.078,24.852 59.085,24.155 L59.085,23.779 ZM49.135,20.391 L53.891,20.391 L53.891,21.577 L50.600,21.577 L50.600,23.271 L53.412,23.271 L53.412,24.409 L50.600,24.409 L50.600,26.323 L53.900,26.323 L53.900,27.500 L49.135,27.500 L49.135,20.391 ZM46.146,25.557 L46.292,22.202 L44.373,27.500 L43.367,27.500 L41.453,22.207 L41.600,25.557 L41.600,27.500 L40.135,27.500 L40.135,20.391 L42.049,20.391 L43.875,25.547 L45.691,20.391 L47.615,20.391 L47.615,27.500 L46.146,27.500 L46.146,25.557 Z" class="cls-1"/>
    <path d="M95.466,10.532 L95.466,15.500 L92.658,15.500 L92.658,10.532 L88.302,2.918 L91.344,2.918 L94.062,7.598 L96.780,2.918 L99.822,2.918 L95.466,10.532 ZM83.556,15.500 L78.048,15.500 L78.048,2.918 L82.944,2.918 C83.796,2.918 84.531,3.020 85.149,3.224 C85.767,3.428 86.232,3.704 86.544,4.052 C87.108,4.700 87.390,5.432 87.390,6.248 C87.390,7.232 87.072,7.964 86.436,8.444 C86.220,8.612 86.070,8.717 85.986,8.759 C85.902,8.801 85.752,8.870 85.536,8.966 C86.316,9.134 86.937,9.485 87.399,10.019 C87.861,10.553 88.092,11.216 88.092,12.008 C88.092,12.884 87.792,13.658 87.192,14.330 C86.496,15.110 85.284,15.500 83.556,15.500 ZM83.970,5.564 C83.622,5.384 83.034,5.294 82.206,5.294 L80.856,5.294 L80.856,8.012 L82.188,8.012 C82.968,8.012 83.547,7.928 83.925,7.760 C84.303,7.592 84.492,7.229 84.492,6.671 C84.492,6.113 84.318,5.744 83.970,5.564 ZM84.555,10.505 C84.129,10.319 83.448,10.226 82.512,10.226 L80.856,10.226 L80.856,13.124 L82.782,13.124 C83.586,13.124 84.189,13.025 84.591,12.827 C84.993,12.629 85.194,12.239 85.194,11.657 C85.194,11.075 84.981,10.691 84.555,10.505 ZM71.556,15.500 L66.048,15.500 L66.048,2.918 L70.944,2.918 C71.796,2.918 72.531,3.020 73.149,3.224 C73.767,3.428 74.232,3.704 74.544,4.052 C75.108,4.700 75.390,5.432 75.390,6.248 C75.390,7.232 75.072,7.964 74.436,8.444 C74.220,8.612 74.070,8.717 73.986,8.759 C73.902,8.801 73.752,8.870 73.536,8.966 C74.316,9.134 74.937,9.485 75.399,10.019 C75.861,10.553 76.092,11.216 76.092,12.008 C76.092,12.884 75.792,13.658 75.192,14.330 C74.496,15.110 73.284,15.500 71.556,15.500 ZM71.970,5.564 C71.622,5.384 71.034,5.294 70.206,5.294 L68.856,5.294 L68.856,8.012 L70.188,8.012 C70.968,8.012 71.547,7.928 71.925,7.760 C72.303,7.592 72.492,7.229 72.492,6.671 C72.492,6.113 72.318,5.744 71.970,5.564 ZM72.555,10.505 C72.129,10.319 71.448,10.226 70.512,10.226 L68.856,10.226 L68.856,13.124 L70.782,13.124 C71.586,13.124 72.189,13.025 72.591,12.827 C72.993,12.629 73.194,12.239 73.194,11.657 C73.194,11.075 72.981,10.691 72.555,10.505 ZM56.934,15.626 C55.074,15.626 53.508,15.005 52.236,13.763 C50.964,12.521 50.328,10.976 50.328,9.128 C50.328,7.280 50.964,5.735 52.236,4.493 C53.508,3.251 55.074,2.630 56.934,2.630 C58.794,2.630 60.360,3.251 61.632,4.493 C62.904,5.735 63.540,7.280 63.540,9.128 C63.540,10.976 62.904,12.521 61.632,13.763 C60.360,15.005 58.794,15.626 56.934,15.626 ZM59.598,6.266 C58.878,5.474 57.993,5.078 56.943,5.078 C55.893,5.078 55.008,5.474 54.288,6.266 C53.568,7.058 53.208,8.015 53.208,9.137 C53.208,10.259 53.568,11.213 54.288,11.999 C55.008,12.785 55.893,13.178 56.943,13.178 C57.993,13.178 58.878,12.785 59.598,11.999 C60.318,11.213 60.678,10.259 60.678,9.137 C60.678,8.015 60.318,7.058 59.598,6.266 ZM43.928,15.608 C42.416,15.608 41.096,15.026 39.968,13.862 L41.426,11.846 C42.182,12.662 42.974,13.070 43.802,13.070 C44.198,13.070 44.537,12.917 44.819,12.611 C45.101,12.305 45.242,11.846 45.242,11.234 L45.242,5.330 L41.516,5.330 L41.516,2.918 L48.068,2.918 L48.068,11.126 C48.068,12.626 47.681,13.748 46.907,14.492 C46.133,15.236 45.140,15.608 43.928,15.608 Z" class="cls-1"/>
    <circle cx="15" cy="15" r="15" class="cls-2"/>
    <path d="M23.411,16.109 C23.299,16.109 23.191,16.098 23.086,16.076 C22.363,15.927 21.821,15.286 21.821,14.520 C21.821,13.967 22.104,13.481 22.532,13.196 C22.783,13.028 23.085,12.931 23.411,12.931 C24.288,12.931 25.000,13.642 25.000,14.520 C25.000,15.398 24.288,16.109 23.411,16.109 ZM19.064,13.969 L19.228,14.182 L22.319,18.221 C22.406,18.334 22.462,18.460 22.499,18.590 C22.511,18.631 22.512,18.673 22.519,18.715 C22.529,18.777 22.549,18.837 22.549,18.899 C22.549,18.921 22.535,18.941 22.534,18.963 C22.528,19.069 22.500,19.169 22.464,19.269 C22.447,19.317 22.440,19.365 22.417,19.411 C22.344,19.552 22.246,19.681 22.112,19.784 C22.111,19.786 22.110,19.786 22.109,19.787 C22.108,19.787 22.107,19.788 22.106,19.789 C21.910,19.937 21.681,20.011 21.453,20.015 C21.447,20.015 21.440,20.015 21.434,20.015 C21.432,20.015 21.430,20.015 21.428,20.015 C21.297,20.014 21.169,19.983 21.046,19.937 C21.040,19.934 21.035,19.931 21.028,19.928 C20.957,19.900 20.884,19.873 20.818,19.830 C20.718,19.763 20.626,19.678 20.548,19.577 L17.152,15.141 C16.881,14.790 16.749,14.368 16.749,13.948 C16.749,13.441 16.943,12.936 17.323,12.556 L18.456,11.423 L19.570,10.309 C19.608,10.271 19.649,10.236 19.691,10.204 C19.744,10.165 19.804,10.144 19.862,10.115 C19.900,10.096 19.934,10.072 19.973,10.057 C20.096,10.012 20.222,9.984 20.351,9.983 C20.639,9.981 20.928,10.089 21.147,10.309 C21.582,10.745 21.582,11.451 21.147,11.886 L19.064,13.969 ZM19.932,8.933 C19.915,8.982 19.908,9.031 19.884,9.077 C19.810,9.218 19.713,9.347 19.579,9.450 L15.143,12.846 C14.791,13.117 14.369,13.250 13.950,13.250 C13.442,13.250 12.937,13.056 12.558,12.675 L11.425,11.542 L10.311,10.428 C10.093,10.211 9.984,9.925 9.984,9.639 C9.984,9.497 10.011,9.354 10.065,9.220 C10.120,9.086 10.202,8.960 10.311,8.851 C10.529,8.633 10.814,8.525 11.100,8.525 C11.241,8.525 11.381,8.552 11.514,8.605 C11.549,8.619 11.577,8.649 11.610,8.667 C11.701,8.714 11.793,8.759 11.870,8.833 C11.876,8.839 11.882,8.845 11.888,8.851 L13.971,10.934 L14.184,10.770 L18.222,7.679 C18.336,7.592 18.462,7.537 18.591,7.499 C18.632,7.487 18.673,7.486 18.715,7.479 C18.777,7.469 18.838,7.449 18.900,7.449 C18.922,7.449 18.943,7.463 18.965,7.464 C19.069,7.470 19.166,7.498 19.265,7.532 C19.314,7.549 19.364,7.557 19.411,7.581 C19.537,7.647 19.650,7.738 19.747,7.853 C19.757,7.865 19.772,7.868 19.782,7.881 C19.782,7.881 19.782,7.881 19.783,7.881 C19.783,7.883 19.784,7.883 19.785,7.885 C19.785,7.885 19.786,7.886 19.786,7.887 C19.873,8.000 19.929,8.126 19.966,8.256 C19.978,8.297 19.979,8.338 19.986,8.379 C19.997,8.441 20.016,8.502 20.016,8.564 C20.016,8.587 20.003,8.607 20.001,8.629 C19.995,8.734 19.967,8.833 19.932,8.933 ZM14.522,8.177 C13.968,8.177 13.482,7.895 13.198,7.467 C13.197,7.467 13.197,7.466 13.197,7.466 C13.148,7.392 13.105,7.314 13.068,7.233 C13.059,7.212 13.062,7.185 13.054,7.164 C12.987,6.995 12.943,6.817 12.938,6.626 C12.938,6.616 12.932,6.609 12.932,6.599 C12.932,6.596 12.932,6.592 12.932,6.588 C12.932,5.710 13.644,4.998 14.522,4.998 C14.539,4.998 14.556,4.998 14.573,4.999 C14.692,5.003 14.797,5.048 14.908,5.076 C14.990,5.098 15.079,5.100 15.155,5.134 C15.270,5.183 15.362,5.265 15.460,5.339 C15.523,5.386 15.597,5.418 15.652,5.474 C15.745,5.568 15.806,5.687 15.873,5.802 C15.908,5.862 15.960,5.910 15.987,5.975 C16.063,6.157 16.103,6.356 16.106,6.565 C16.106,6.573 16.111,6.579 16.111,6.588 C16.111,6.699 16.100,6.807 16.077,6.912 C15.928,7.635 15.288,8.177 14.522,8.177 ZM12.853,14.865 C12.982,15.035 13.078,15.220 13.144,15.414 C13.167,15.480 13.167,15.550 13.182,15.618 C13.210,15.741 13.247,15.864 13.250,15.990 C13.251,16.009 13.251,16.029 13.251,16.048 C13.251,16.556 13.057,17.061 12.677,17.440 L11.544,18.574 L10.430,19.687 C10.343,19.775 10.243,19.835 10.138,19.882 C10.051,19.925 9.963,19.950 9.871,19.970 C9.871,19.970 9.871,19.970 9.871,19.970 C9.794,19.986 9.719,20.015 9.641,20.015 L9.641,20.015 C9.702,20.015 9.761,19.990 9.822,19.980 L9.822,19.980 C9.761,19.990 9.702,20.015 9.641,20.015 C9.535,20.015 9.431,19.986 9.328,19.955 C9.319,19.953 9.309,19.953 9.300,19.950 C9.143,19.899 8.994,19.824 8.868,19.703 C8.863,19.698 8.858,19.693 8.853,19.687 C8.526,19.361 8.445,18.882 8.608,18.479 C8.662,18.345 8.744,18.220 8.853,18.111 L10.936,16.027 L10.772,15.814 L7.680,11.776 C7.594,11.662 7.538,11.537 7.501,11.407 C7.489,11.366 7.488,11.325 7.481,11.283 C7.470,11.221 7.451,11.160 7.451,11.098 C7.451,11.076 7.464,11.056 7.466,11.034 C7.472,10.928 7.500,10.829 7.535,10.729 C7.553,10.680 7.560,10.631 7.584,10.585 C7.657,10.445 7.754,10.315 7.888,10.212 C8.001,10.126 8.127,10.070 8.256,10.032 C8.298,10.020 8.339,10.019 8.382,10.012 C8.443,10.002 8.504,9.982 8.565,9.982 C8.565,9.982 8.565,9.982 8.565,9.982 C8.566,9.982 8.566,9.982 8.566,9.982 C8.588,9.982 8.608,9.996 8.630,9.997 C8.734,10.003 8.830,10.030 8.928,10.064 C8.978,10.082 9.028,10.089 9.075,10.114 C9.199,10.178 9.309,10.267 9.405,10.379 C9.416,10.392 9.434,10.397 9.445,10.411 C9.445,10.412 9.446,10.412 9.446,10.412 C9.446,10.412 9.446,10.412 9.446,10.413 C9.448,10.415 9.450,10.417 9.451,10.419 L12.848,14.855 C12.850,14.858 12.850,14.862 12.853,14.865 ZM8.178,15.476 C8.178,16.030 7.896,16.516 7.468,16.801 C7.217,16.970 6.915,17.066 6.589,17.066 C6.370,17.066 6.162,17.022 5.972,16.942 C5.972,16.942 5.972,16.942 5.972,16.942 C5.910,16.915 5.864,16.864 5.805,16.830 C5.804,16.829 5.802,16.827 5.800,16.826 C5.684,16.758 5.563,16.697 5.468,16.602 C5.468,16.602 5.468,16.602 5.468,16.602 C5.416,16.550 5.388,16.479 5.343,16.419 C5.343,16.418 5.342,16.417 5.341,16.416 C5.264,16.314 5.179,16.219 5.128,16.100 C5.128,16.100 5.128,16.100 5.128,16.100 C5.097,16.027 5.098,15.942 5.078,15.864 C5.047,15.742 5.001,15.624 5.000,15.493 C5.001,15.624 5.047,15.741 5.078,15.863 C5.078,15.863 5.078,15.863 5.078,15.863 C5.047,15.741 5.001,15.624 5.000,15.493 C5.000,15.487 5.000,15.482 5.000,15.476 C5.000,14.599 5.711,13.887 6.589,13.887 C6.701,13.887 6.809,13.899 6.914,13.920 C7.637,14.070 8.178,14.711 8.178,15.476 ZM14.857,17.151 C15.209,16.880 15.631,16.747 16.050,16.747 C16.557,16.747 17.063,16.941 17.442,17.322 L18.575,18.454 L19.689,19.569 C19.841,19.720 19.921,19.908 19.967,20.103 C19.987,20.187 20.016,20.271 20.016,20.357 C20.016,20.357 20.016,20.357 20.016,20.357 C20.016,20.493 19.988,20.628 19.939,20.756 C19.884,20.898 19.804,21.031 19.689,21.145 C19.547,21.287 19.373,21.366 19.193,21.415 C19.096,21.441 19.000,21.472 18.900,21.472 C18.759,21.472 18.618,21.444 18.485,21.391 C18.449,21.377 18.421,21.346 18.387,21.328 C18.296,21.280 18.204,21.235 18.126,21.160 C18.121,21.155 18.117,21.150 18.112,21.145 L16.029,19.063 C15.958,19.118 15.882,19.166 15.816,19.227 L11.777,22.318 C11.775,22.320 11.773,22.321 11.770,22.323 C11.770,22.323 11.770,22.323 11.770,22.323 C11.769,22.324 11.768,22.325 11.767,22.325 C11.656,22.408 11.533,22.462 11.407,22.498 C11.367,22.510 11.327,22.511 11.287,22.517 C11.224,22.528 11.163,22.547 11.100,22.547 C11.100,22.547 11.100,22.547 11.100,22.547 C11.100,22.547 11.100,22.547 11.100,22.547 C11.077,22.547 11.057,22.534 11.035,22.532 C10.932,22.526 10.836,22.499 10.738,22.465 C10.687,22.448 10.637,22.440 10.590,22.416 C10.465,22.351 10.355,22.262 10.258,22.150 C10.247,22.137 10.231,22.132 10.220,22.119 C10.220,22.119 10.220,22.119 10.220,22.118 C10.218,22.117 10.217,22.115 10.215,22.112 C10.215,22.112 10.214,22.111 10.214,22.111 C9.839,21.620 9.932,20.921 10.421,20.547 L14.857,17.151 ZM14.100,22.633 C14.123,22.593 14.149,22.557 14.176,22.519 C14.207,22.473 14.231,22.423 14.266,22.381 C14.317,22.320 14.378,22.269 14.438,22.217 C14.454,22.203 14.468,22.186 14.485,22.172 C14.607,22.074 14.744,21.999 14.891,21.940 C14.924,21.927 14.956,21.917 14.990,21.906 C15.145,21.856 15.306,21.820 15.478,21.820 C16.032,21.820 16.518,22.102 16.802,22.530 C16.971,22.781 17.068,23.084 17.068,23.409 C17.068,24.287 16.356,24.998 15.478,24.998 C14.601,24.998 13.889,24.287 13.889,23.409 C13.889,23.298 13.900,23.190 13.922,23.084 C13.956,22.922 14.021,22.773 14.100,22.633 Z" class="cls-3"/>
  </g>
</svg>
