<svg xmlns="http://www.w3.org/2000/svg" xmlns:xlink="http://www.w3.org/1999/xlink" preserveAspectRatio="xMidYMid" width="23" height="30" viewBox="0 0 23 30">
  <defs>
    <style>
      .cls-1 {
        fill: #242424;
        fill-rule: evenodd;
      }
    </style>
  </defs>
  <path d="M22.069,10.971 L20.445,10.971 L20.445,22.731 C20.445,22.974 20.242,23.171 19.990,23.171 C19.738,23.171 19.534,22.974 19.534,22.731 L19.534,10.971 L17.741,10.971 L17.741,26.256 C17.741,26.403 17.758,26.551 17.792,26.695 L18.303,28.863 C18.339,29.014 18.477,29.120 18.638,29.120 C18.798,29.120 18.936,29.014 18.972,28.863 L19.483,26.695 C19.517,26.551 19.534,26.403 19.534,26.256 L19.534,24.823 C19.534,24.580 19.738,24.383 19.990,24.383 C20.241,24.383 20.445,24.580 20.445,24.823 L20.445,26.256 C20.445,26.469 20.420,26.683 20.371,26.891 L19.860,29.058 C19.729,29.612 19.226,29.999 18.637,29.999 C18.048,29.999 17.546,29.612 17.415,29.058 L16.903,26.891 C16.854,26.683 16.829,26.469 16.829,26.256 L16.829,10.971 L15.469,10.971 C14.955,10.971 14.538,10.568 14.538,10.072 L14.538,7.643 C14.538,7.147 14.955,6.744 15.469,6.744 L16.174,6.744 L16.309,2.306 C16.348,1.013 17.428,-0.000 18.769,-0.000 C20.109,-0.000 21.189,1.013 21.229,2.306 L21.363,6.744 L22.069,6.744 C22.582,6.744 23.000,7.147 23.000,7.643 L23.000,10.072 C23.000,10.568 22.582,10.971 22.069,10.971 ZM20.318,2.332 C20.293,1.517 19.613,0.879 18.769,0.879 C17.925,0.879 17.244,1.517 17.220,2.332 L17.086,6.744 L20.452,6.744 L20.318,2.332 ZM22.089,10.072 L22.089,7.643 C22.089,7.632 22.080,7.623 22.069,7.623 L15.469,7.623 C15.458,7.623 15.449,7.632 15.449,7.643 L15.449,10.072 C15.449,10.083 15.458,10.092 15.469,10.092 L22.069,10.092 C22.080,10.092 22.089,10.083 22.089,10.072 L22.089,10.072 ZM20.874,9.675 C20.622,9.675 20.418,9.478 20.418,9.235 L20.418,8.492 C20.418,8.249 20.622,8.052 20.874,8.052 C21.125,8.052 21.329,8.249 21.329,8.492 L21.329,9.235 C21.329,9.478 21.125,9.675 20.874,9.675 ZM19.445,9.675 C19.193,9.675 18.989,9.478 18.989,9.235 L18.989,8.492 C18.989,8.249 19.193,8.052 19.445,8.052 C19.696,8.052 19.900,8.249 19.900,8.492 L19.900,9.235 C19.900,9.478 19.696,9.675 19.445,9.675 ZM18.016,9.675 C17.764,9.675 17.560,9.478 17.560,9.235 L17.560,8.492 C17.560,8.249 17.764,8.052 18.016,8.052 C18.267,8.052 18.471,8.249 18.471,8.492 L18.471,9.235 C18.471,9.478 18.267,9.675 18.016,9.675 ZM16.587,9.675 C16.335,9.675 16.131,9.478 16.131,9.235 L16.131,8.492 C16.131,8.249 16.335,8.052 16.587,8.052 C16.838,8.052 17.042,8.249 17.042,8.492 L17.042,9.235 C17.042,9.478 16.838,9.675 16.587,9.675 ZM11.728,30.000 L2.060,30.000 C0.924,30.000 -0.000,29.108 -0.000,28.011 L-0.000,12.608 C-0.000,11.849 0.420,11.137 1.095,10.750 L3.238,9.522 L3.238,8.395 C2.939,8.273 2.729,7.987 2.729,7.654 L2.729,6.699 C2.729,6.256 3.102,5.896 3.561,5.896 L10.227,5.896 C10.686,5.896 11.059,6.256 11.059,6.699 L11.059,7.654 C11.059,7.987 10.849,8.273 10.550,8.395 L10.550,9.522 L12.693,10.750 C13.369,11.137 13.789,11.849 13.789,12.608 L13.789,28.011 C13.789,29.108 12.864,30.000 11.728,30.000 ZM10.148,6.775 L3.640,6.775 L3.640,7.578 L10.148,7.578 L10.148,6.775 ZM4.149,8.458 L4.149,9.332 L9.639,9.332 L9.639,8.458 L4.149,8.458 ZM12.877,13.803 L3.999,13.803 C3.748,13.803 3.544,13.606 3.544,13.363 C3.544,13.120 3.748,12.923 3.999,12.923 L12.877,12.923 L12.877,12.608 C12.877,12.158 12.629,11.736 12.228,11.506 L9.970,10.211 L3.819,10.211 L1.560,11.506 C1.160,11.736 0.911,12.158 0.911,12.608 L0.911,12.923 L1.873,12.923 C2.125,12.923 2.329,13.120 2.329,13.363 C2.329,13.606 2.125,13.803 1.873,13.803 L0.911,13.803 L0.911,25.950 L12.877,25.950 L12.877,13.803 ZM12.877,26.830 L0.911,26.830 L0.911,28.011 C0.911,28.622 1.427,29.120 2.060,29.120 L11.728,29.120 C12.362,29.120 12.877,28.622 12.877,28.011 L12.877,26.830 ZM4.313,19.203 L6.439,19.203 L6.439,17.150 C6.439,16.908 6.643,16.711 6.894,16.711 C7.146,16.711 7.350,16.908 7.350,17.150 L7.350,19.203 L9.475,19.203 C9.727,19.203 9.931,19.400 9.931,19.642 C9.931,19.885 9.727,20.082 9.475,20.082 L7.350,20.082 L7.350,22.134 C7.350,22.377 7.146,22.574 6.894,22.574 C6.643,22.574 6.439,22.377 6.439,22.134 L6.439,20.082 L4.313,20.082 C4.061,20.082 3.858,19.885 3.858,19.642 C3.858,19.400 4.061,19.203 4.313,19.203 Z" class="cls-1"/>
</svg>
