<svg xmlns="http://www.w3.org/2000/svg" xmlns:xlink="http://www.w3.org/1999/xlink" preserveAspectRatio="xMidYMid" width="34" height="50" viewBox="0 0 34 50">
  <defs>
    <style>
      .cls-1 {
        fill: #54a6d6;
        fill-rule: evenodd;
      }
    </style>
  </defs>
  <path d="M33.261,40.512 C32.853,40.512 32.522,40.840 32.522,41.244 L32.522,48.131 C32.522,48.353 32.339,48.535 32.114,48.535 L28.142,48.535 L28.142,34.111 C28.142,33.707 27.811,33.379 27.403,33.379 C26.995,33.379 26.664,33.707 26.664,34.111 L26.664,48.535 L18.666,48.535 L20.985,46.006 C21.239,45.729 21.358,45.336 21.305,44.952 C21.304,44.945 21.303,44.937 21.301,44.930 L19.092,31.994 L19.688,31.106 C20.017,31.337 20.270,31.560 20.745,31.560 C21.229,31.560 21.681,31.292 21.904,30.851 L21.904,30.850 L24.234,26.221 L29.541,28.259 C29.733,28.341 32.522,29.586 32.522,32.872 L32.522,37.826 C32.522,38.231 32.853,38.559 33.261,38.559 C33.669,38.559 34.000,38.231 34.000,37.826 L34.000,32.872 C34.000,28.542 30.259,26.968 30.100,26.903 C30.095,26.901 30.090,26.899 30.086,26.897 L21.252,23.506 L21.252,21.452 C22.655,20.371 23.628,18.767 23.872,16.938 C24.571,16.889 25.220,16.630 25.751,16.178 C26.443,15.588 26.840,14.729 26.840,13.822 C26.840,13.069 26.566,12.351 26.078,11.791 L26.078,9.077 C26.078,4.072 21.970,-0.000 16.920,-0.000 C11.871,-0.000 7.763,4.072 7.763,9.077 L7.763,11.862 C7.269,12.416 7.001,13.099 7.001,13.822 C7.001,14.729 7.398,15.588 8.090,16.178 C8.620,16.630 9.269,16.889 9.968,16.938 C10.214,18.801 11.216,20.464 12.738,21.561 L12.738,23.506 L3.914,26.897 C3.909,26.899 3.904,26.901 3.900,26.903 C3.740,26.967 -0.000,28.542 -0.000,32.872 L-0.000,48.130 C-0.000,49.161 0.846,50.000 1.886,50.000 L8.926,50.000 C9.334,50.000 9.665,49.672 9.665,49.267 C9.665,48.863 9.334,48.535 8.926,48.535 L7.336,48.535 L7.336,34.111 C7.336,33.707 7.005,33.379 6.597,33.379 C6.189,33.379 5.858,33.707 5.858,34.111 L5.858,48.535 L1.886,48.535 C1.661,48.535 1.478,48.354 1.478,48.131 L1.478,32.872 C1.478,29.574 4.285,28.332 4.457,28.259 L9.761,26.221 L12.091,30.850 C12.314,31.293 12.767,31.560 13.250,31.560 C13.723,31.560 13.974,31.341 14.307,31.106 L14.903,31.994 L12.694,44.930 C12.692,44.937 12.691,44.945 12.690,44.952 C12.637,45.335 12.756,45.729 13.010,46.006 L15.329,48.535 L12.374,48.535 C11.966,48.535 11.635,48.863 11.635,49.267 C11.635,49.672 11.966,50.000 12.374,50.000 L32.114,50.000 C33.154,50.000 34.000,49.161 34.000,48.131 L34.000,41.244 C34.000,40.840 33.669,40.512 33.261,40.512 ZM22.849,25.690 L20.677,30.006 C20.623,29.968 19.472,29.157 18.065,28.166 C18.675,27.419 17.961,28.293 20.748,24.884 L22.849,25.690 ZM18.482,30.257 L17.918,31.098 L16.076,31.098 L15.513,30.257 L16.997,29.212 L18.482,30.257 ZM14.216,23.742 L14.216,22.372 C15.114,22.730 16.073,22.896 17.010,22.896 C17.979,22.896 18.929,22.692 19.774,22.326 L19.774,23.748 L16.997,27.145 L14.216,23.742 ZM25.362,13.822 C25.362,14.302 25.152,14.756 24.787,15.068 C24.545,15.274 24.253,15.405 23.934,15.457 L23.934,12.188 C24.783,12.324 25.362,13.023 25.362,13.822 ZM9.907,15.457 C9.048,15.319 8.479,14.615 8.479,13.822 C8.479,13.039 9.133,12.402 9.907,12.224 L9.907,15.457 ZM9.947,10.732 C9.711,10.759 9.442,10.822 9.241,10.890 L9.241,9.077 C9.241,4.880 12.686,1.465 16.920,1.465 C21.155,1.465 24.600,4.880 24.600,9.077 L24.600,10.839 C24.385,10.775 24.162,10.732 23.934,10.712 C23.934,10.005 23.940,10.141 21.608,7.656 C21.179,7.199 20.469,7.103 19.929,7.453 C17.355,9.120 14.215,9.957 11.317,9.751 C10.681,9.704 10.103,10.119 9.947,10.732 ZM11.385,16.034 L11.385,11.464 L11.385,11.223 C14.575,11.408 17.919,10.469 20.620,8.754 C21.690,9.893 22.269,10.490 22.456,10.717 C22.456,11.292 22.456,15.376 22.456,16.033 C22.456,19.007 20.010,21.432 17.010,21.432 C13.641,21.432 11.385,18.841 11.385,16.034 ZM13.317,30.006 L11.145,25.690 L13.243,24.885 L15.927,28.169 C14.562,29.129 13.441,29.918 13.317,30.006 ZM14.165,45.088 L16.304,32.562 L17.690,32.562 L19.829,45.088 L16.997,48.176 L14.165,45.088 Z" class="cls-1"/>
</svg>
